<svg width="135" height="28" viewBox="0 0 135 28" fill="none" xmlns="http://www.w3.org/2000/svg">
<path d="M11.0787 11.7239C9.56579 11.7239 8.34108 12.2282 7.3325 13.2607C6.34787 14.2933 5.84358 15.6141 5.84358 17.2711C5.84358 18.952 6.34787 20.3208 7.3325 21.3535C8.31713 22.3862 9.56579 22.9145 11.0787 22.9145C12.5435 22.9145 13.7682 22.3862 14.7528 21.3296C15.7374 20.2729 16.2417 18.9282 16.2417 17.2713C16.2417 15.6383 15.7614 14.3176 14.7769 13.2609C13.7923 12.2523 12.5676 11.7241 11.0788 11.7241L11.0787 11.7239ZM5.53146 0.4854V9.8989C6.39596 9.0344 7.3325 8.38602 8.31713 7.95377C9.32571 7.52152 10.3824 7.3054 11.535 7.3054C14.0084 7.3054 16.1218 8.24194 17.8508 10.115C19.5798 11.9881 20.4443 14.3894 20.4443 17.3192C20.4443 20.1528 19.5558 22.5062 17.7548 24.4032C15.9537 26.3003 13.8406 27.2609 11.3911 27.2609C10.2866 27.2609 9.27798 27.0688 8.34144 26.6846C7.4049 26.3004 6.46836 25.6521 5.53182 24.7634V26.7806H0.801025V0.4854H5.53182M24.2381 7.80951H28.9929V26.8044H24.2381V7.80951ZM26.6155 0.00506144C27.4561 0.00506144 28.1765 0.317182 28.7528 0.917649C29.3531 1.51794 29.6413 2.26249 29.6413 3.12699C29.6413 3.96753 29.3531 4.7119 28.7528 5.31219C28.1525 5.91248 27.4561 6.20064 26.6397 6.20064C25.7991 6.20064 25.0787 5.88852 24.4784 5.28806C23.8781 4.68759 23.59 3.94322 23.59 3.05476C23.59 2.21422 23.8781 1.4938 24.4784 0.91747C25.0787 0.29305 25.7991 0.00488281 26.6157 0.00488281M36.1971 0.4854H40.9518V7.80969H44.7461V12.5644H40.9518V26.8045H36.1971V12.5884H32.7871V7.83365H36.1971V0.4854ZM58.7942 11.7239C57.3053 11.7239 56.0566 12.2282 55.048 13.2607C54.0634 14.2933 53.5591 15.6141 53.5591 17.2711C53.5591 18.952 54.0634 20.3208 55.048 21.3535C56.0326 22.3862 57.2813 22.9145 58.7942 22.9145C60.259 22.9145 61.4837 22.3862 62.4683 21.3296C63.4529 20.2729 63.9572 18.9282 63.9572 17.2713C63.9572 15.6383 63.4769 14.3176 62.4924 13.2609C61.5319 12.2523 60.2831 11.7241 58.7944 11.7241L58.7942 11.7239ZM53.2709 0.4854V9.8989C54.1354 9.0344 55.072 8.38602 56.0566 7.95377C57.0652 7.52152 58.1218 7.3054 59.2745 7.3054C61.7479 7.3054 63.8612 8.24194 65.5902 10.115C67.3192 11.9881 68.1837 14.3894 68.1837 17.3192C68.1837 20.1528 67.2953 22.5062 65.4942 24.4032C63.6932 26.3003 61.58 27.2609 59.1306 27.2609C58.05 27.2609 57.0174 27.0688 56.0809 26.6846C55.1444 26.3004 54.2078 25.6521 53.2713 24.7634V26.7806H48.5405V0.4854H53.2713M80.3825 11.7239C78.9177 11.7239 77.693 12.2521 76.7084 13.2849C75.7238 14.3176 75.2436 15.6622 75.2436 17.2952C75.2436 18.9282 75.7479 20.297 76.7325 21.3535C77.7172 22.41 78.9419 22.9384 80.4067 22.9384C81.8956 22.9384 83.1442 22.4102 84.1289 21.3775C85.1135 20.3448 85.6178 18.9761 85.6178 17.2951C85.6178 15.6381 85.1375 14.2933 84.1289 13.2847C83.1203 12.2521 81.8716 11.7237 80.3827 11.7237L80.3825 11.7239ZM85.9058 7.80969H90.6605V26.8045H85.9058V24.7874C84.9692 25.6758 84.0327 26.3003 83.1201 26.7086C82.1836 27.0927 81.175 27.2849 80.0704 27.2849C77.621 27.2849 75.5078 26.3244 73.7068 24.4272C71.9057 22.53 71.0173 20.1528 71.0173 17.3431C71.0173 14.4134 71.8818 12.0121 73.6108 10.139C75.3398 8.26589 77.453 7.32935 79.9265 7.32935C81.0552 7.32935 82.1358 7.54548 83.1444 7.97773C84.153 8.40998 85.0656 9.05835 85.906 9.92285V7.80969M95.0309 7.80951H99.7857V9.75464C100.866 8.84205 101.851 8.21781 102.715 7.8576C103.604 7.49739 104.493 7.32935 105.405 7.32935C107.278 7.32935 108.887 7.97773 110.208 9.29843C111.312 10.4271 111.865 12.06 111.865 14.2453V26.8045H107.158V18.4958C107.158 16.2386 107.062 14.7257 106.846 13.9811C106.63 13.2366 106.294 12.6604 105.789 12.2761C105.285 11.8918 104.661 11.6998 103.916 11.6998C102.956 11.6998 102.115 12.0119 101.443 12.6603C100.746 13.3086 100.266 14.1971 100.002 15.3258C99.8579 15.9261 99.7859 17.1989 99.7859 19.168V26.8044H95.0311L95.0309 7.80951ZM116.235 0.4854H120.99V15.6381L128.002 7.80951H133.981L125.793 16.9107L134.99 26.8044H129.082L121.014 18.0634V26.8044H116.259V0.4854H116.235Z" fill="#27426D"/>
</svg>
