<svg xmlns="http://www.w3.org/2000/svg" xmlns:v="https://vecta.io/nano" width="101" height="29" fill="none"><path d="M14.143 28.047h27.28V.767h-27.28v27.28z" fill="#fff"></path><g fill="#db0011"><path d="M41.423.767v27.28l13.29-13.626L41.423.767z"></path><path d="M14.143.767l13.64 13.99L41.423.767h-27.28z"></path><path d="M14.143.766L.853 14.421l13.29 13.626V.766z"></path><path d="M14.143 28.047h27.28l-13.64-13.99-13.64 13.99z"></path></g><g fill="#fff"><path d="M66.255 14.477h-4.896v4.477H58.91V8.461h2.448v4.302h4.896V8.461h2.448v10.492h-2.448v-4.477z"></path><path d="M74.733 18.925c-2.427 0-4.407-.916-4.442-3.421h2.427c.035 1.119.728 1.798 2.05 1.798.979 0 2.112-.469 2.112-1.504 0-.818-.755-1.056-2.022-1.413l-.818-.203c-1.763-.469-3.526-1.119-3.526-3.008 0-2.322 2.329-3.12 4.442-3.12 2.175 0 4.064.706 4.099 3.036h-2.427c-.098-.944-.692-1.504-1.833-1.504-.909 0-1.791.441-1.791 1.385 0 .762.755 1 2.329 1.469l.944.266c1.924.56 3.155 1.182 3.155 2.945-.035 2.357-2.49 3.274-4.701 3.274zm6.058-10.66h3.91a11.1 11.1 0 0 1 2.203.112c1.357.301 2.399 1.119 2.399 2.539 0 1.35-.916 2.028-2.238 2.35 1.511.266 2.644.972 2.644 2.532 0 2.392-2.518 2.917-4.477 2.917h-4.414l-.028-10.45zm3.91 4.358c1.07 0 2.175-.21 2.175-1.413 0-1.091-1.014-1.385-2.022-1.385h-1.7v2.798H84.7zm.217 4.533c1.133 0 2.238-.238 2.238-1.532s-.944-1.532-2.112-1.532H83.12v3.064h1.798zm11.094 1.769c-3.623 0-5.232-2.154-5.232-5.365 0-3.204 1.798-5.533 5.358-5.533 2.238 0 4.414.944 4.477 3.295h-2.518c-.126-1.056-.881-1.588-1.959-1.588-2.203 0-2.868 2.21-2.868 3.889s.664 3.623 2.777 3.623c1.105 0 1.924-.56 2.078-1.623h2.525c-.252 2.413-2.301 3.302-4.638 3.302z" fill-rule="evenodd"></path></g></svg>