<svg xmlns="http://www.w3.org/2000/svg" xmlns:v="https://vecta.io/nano" width="136" height="25" fill="none"><path fill-rule="evenodd" d="M14.332 1.327c0 3.008 5.022 6.351 5.022 9.786 0 0 0 .336-.14.686 4.694 1 8.016 3.344 8.016 6.093 0 3.7-5.925 6.757-13.269 6.757-7.499 0-13.311-3.008-13.311-6.61 0-2.749 3.602-4.98 7.946-6.163 0 1.518 4.945 6.323 5.064 8.268.014.224.056.413 0 .643 1.07-.574 1.07-2.35 1.07-2.35 0-4.218-4.813-6.086-4.813-10.234 0-1.616.749-2.798 1.42-3.127V6.23c0 3.015 5.204 6.379 5.204 9.128v.902c1.21-.476 1.21-2.728 1.21-2.728 0-3.791-4.833-5.904-4.833-10.241 0-1.609.742-2.791 1.413-3.127v1.161zm24.349 22.622c-2.588 0-4.456-.713-4.456-.713v-4.358h.637c.336 2.301 2.133 4.057 4.197 4.057 2.057 0 3.505-1.105 3.505-2.861 0-1.868-1.917-2.721-3.197-3.344l-1.847-.895c-1.756-.853-3.176-2.238-3.176-4.176 0-2.42 1.847-4.498 5.379-4.498 1.5.012 2.988.277 4.4.783v3.896h-.636c-.378-2.077-1.567-3.714-3.98-3.714-1.798 0-2.868 1.203-2.868 2.427 0 1.588 1.14 2.301 2.462 2.952l1.854.895c1.679.832 3.763 2.217 3.763 4.568 0 2.994-2.133 4.98-6.037 4.98zm7.436-2.7c0-1.161.867-2.05 2.763-2.728l3.337-1.182v-1.014c0-1.518-.72-2.455-1.805-2.455-.741 0-1.483.357-1.854.937-.147.217-.168.532-.168.769 0 .413.266.895.266.895l-1.623.727c-.203-.343-.448-.846-.448-1.357 0-.091.028-.189.028-.266.119-.867.888-1.441 1.924-2.043 1.014-.609 1.875-.776 2.49-.776 3.113 0 3.658 2.413 3.658 3.211v4.994c0 .79.07 1.301.735 1.301.203 0 .322 0 .595-.098l.594-.196v.727l-3.455 1.252c-.518-.357-.77-1.014-.867-1.567-.811.678-2.217 1.567-3.407 1.567-1.679 0-2.763-1.084-2.763-2.7zm3.777-2.175c-.518.224-1.434.63-1.434 1.791 0 .623.371 1.637 1.658 1.637.616 0 1.476-.336 2.098-.818v-3.574l-2.322.965zm7.415 4.176v-.587l.79-.154c.476-.098.812-.469.812-.958v-6.582c0-.566-.266-.867-.742-.867a1.51 1.51 0 0 0-.553.105l-.308.119v-.735l3.441-1.532h.504v1.826c1.049-1.21 2.287-1.826 3.392-1.826 2.434 0 3.602 1.798 3.602 3.896v5.596c0 .49.364.888.839.958l.812.154v.587h-5.687v-.587l.79-.154c.476-.098.86-.469.86-.958v-5.568c0-.742-.196-2.392-2.105-2.392-1.049 0-1.938.665-2.462 1.154v6.806c0 .49.385.86.86.958l.79.154v.587h-5.638zm19.866-8.611h-3.253v5.806c0 1.28.672 1.986 1.651 1.986a3.47 3.47 0 0 0 1.602-.448l.259.56-2.098 1.336s-.413.07-.623.07c-2.022 0-3.113-1.189-3.113-3.721v-5.589h-1.7v-.588s2.553-.979 3.553-3.392h.469v2.973h3.672l-.42 1.007zm1.819 6.61c0-1.161.86-2.05 2.763-2.728l3.337-1.182v-1.014c0-1.518-.72-2.455-1.805-2.455-.741 0-1.483.357-1.854.937-.147.217-.175.532-.175.769 0 .413.28.895.28.895l-1.63.727c-.203-.343-.448-.846-.448-1.357 0-.091.028-.189.028-.266.119-.867.888-1.441 1.924-2.043 1.014-.609 1.875-.776 2.49-.776 3.113 0 3.658 2.413 3.658 3.211v4.994c0 .79.07 1.301.742 1.301.196 0 .322 0 .588-.098l.595-.196v.727l-3.455 1.252c-.518-.357-.762-1.014-.867-1.567-.811.678-2.217 1.567-3.407 1.567-1.679 0-2.763-1.084-2.763-2.7zm3.777-2.175c-.518.224-1.434.63-1.434 1.791 0 .623.371 1.637 1.658 1.637.616 0 1.483-.336 2.099-.818v-3.574l-2.322.965zm6.715 4.176v-.587l.79-.154c.476-.098.811-.469.811-.958v-6.582c0-.566-.266-.867-.741-.867a1.51 1.51 0 0 0-.553.105l-.308.119v-.735l3.442-1.532h.504v1.826c1.049-1.21 2.294-1.826 3.392-1.826 2.434 0 3.602 1.798 3.602 3.896v5.596c0 .49.364.888.839.958l.812.154v.587h-5.687v-.587l.79-.154c.476-.098.86-.469.86-.958v-5.568c0-.742-.189-2.392-2.105-2.392-1.049 0-1.931.665-2.462 1.154v6.806c0 .49.385.86.86.958l.79.154v.587h-5.638zm18.257 0c-2.253 0-4.967-1.616-4.967-5.113 0-3.071 2.469-5.582 5.778-5.582 1.105 0 1.896.21 2.476.441V7.713c0-.553-.315-.713-.699-.713a2.25 2.25 0 0 0-.672.112l-.482.161V6.58l3.749-1.518h.496v15.193c0 .874.147 1.378.791 1.378.196 0 .315 0 .58-.091l.574-.182v.692l-3.358 1.196c-.524-.343-.79-.993-.909-1.518-.622.644-1.749 1.518-3.357 1.518zm1.077-9.723c-1.728 0-3.505 1.056-3.505 4.141 0 2.588 1.35 4.155 3.456 4.155 1.273 0 2.063-.713 2.259-1.084v-5.995c-.315-.762-1.203-1.217-2.21-1.217zm10.408 3.959v.119c-.028 3.211 1.77 4.826 4.022 4.826 1.133 0 2.176-.434 3.001-1.084v.965c-.944.888-2.385 1.637-4.162 1.637-3.693 0-5.323-2.819-5.323-5.498 0-3.141 2.343-5.694 5.365-5.694 2.49 0 4.428 1.784 4.428 4.414v.315h-7.331zm4.848-.986v-.049c0-1.812-.994-2.679-2.176-2.679-1.329 0-2.322.895-2.602 2.728h4.778zm3.182 6.75v-.587l.812-.147c.468-.098.839-.469.839-.958v-6.554c0-.567-.273-.86-.762-.86-.175 0-.371.028-.567.098l-.322.126v-.735l3.498-1.525h.517v2.378c.882-1.714 1.945-2.427 3.148-2.427.986 0 1.231.245 1.231.245v2.602h-.489c-.126-.686-.595-1.028-1.329-1.028-.791 0-1.777.217-2.463 1.644v6.037c0 .49.49.881.959.958l1.182.147v.587h-6.254z" fill="#e41f36"></path></svg>