<svg xmlns="http://www.w3.org/2000/svg" xmlns:xlink="http://www.w3.org/1999/xlink" xmlns:v="https://vecta.io/nano" width="115" height="47"><style><![CDATA[.N{fill-rule:efill:#002f6c;ll:#002f6c}.P{fill:#002d3c}]]></style><defs><image width="1201" height="300" id="R"></image><clipPath id="B"><path d="M-485 3.96h162.77V42.5H-485V3.96z"></path></clipPath><clipPath id="C"><path d="M-485 3.96h162.77V42.5H-485V3.96z"></path></clipPath><image width="800" height="293" id="S"></image><clipPath id="E"><path d="M308.56 14.38h14.11v15.58h-14.11V14.38z"></path></clipPath><clipPath id="F"><path d="M-719.59 11.08h4.53v24.98h-4.53V11.08z"></path></clipPath><clipPath id="G"><path d="M-885.97 11.08h23.9v25.17h-23.9V11.08z"></path></clipPath><clipPath id="H"><path d="M-812.47 11.08h23.72v25.17h-23.72V11.08z"></path></clipPath><clipPath id="I"><path d="M-922 28.85h7.24v7.6H-922v-7.6z"></path></clipPath><clipPath id="J"><path d="M70.87 39.15h7.64v7.76h-7.64v-7.76z"></path></clipPath><clipPath id="K"><path d="M89.12 39.15h6.97v7.76h-6.97v-7.76z"></path></clipPath><clipPath id="L"><path d="M102.27 39.15h7.64v7.76h-7.64v-7.76z"></path></clipPath><image width="778" height="201" id="T"></image><image width="353" height="143" id="U"></image><path id="O" d="M-327.7 3.96h-145.33c-2.55 0-4.76 1.73-5.33 4.18l-6.5 27.75c-.79 3.38 1.81 6.61 5.33 6.61h145.34c2.55 0 4.76-1.73 5.33-4.18l6.48-27.76c.79-3.37-1.81-6.6-5.32-6.6z"></path><path id="P" d="M-469.66 10.25l10.8 10.25c1.29 1.21 1.1 3.32-.37 4.29l-15.52 10.25c-2.06 1.36-4.73-.5-4.18-2.92l4.72-20.49c.47-2.07 3.01-2.84 4.55-1.38zm44.47 14.32h-12.06c.05 2.34 1.27 3.51 3.67 3.51 1.68 0 2.99-.71 3.95-2.15l3.66.91c-.67 1.45-1.79 2.67-3.2 3.48a9.3 9.3 0 0 1-4.65 1.18c-2.19 0-3.94-.63-5.24-1.89-1.29-1.26-1.94-2.93-1.94-5.01-.03-1.21.21-2.41.69-3.53a8.73 8.73 0 0 1 2.09-2.95c1.86-1.75 3.99-2.62 6.41-2.62 2.3 0 4.1.84 5.39 2.5 1.3 1.66 1.7 3.85 1.23 6.57zm-3.48-2.81c-.27-1.95-1.42-2.93-3.45-2.93a4.72 4.72 0 0 0-2.73.8c-.79.54-1.42 1.27-1.8 2.13h7.98z"></path><path id="Q" d="M-401.19 24.57h-12.04c.04 2.34 1.26 3.51 3.66 3.51 1.67 0 2.99-.72 3.94-2.15l3.65.91c-.67 1.45-1.79 2.67-3.2 3.48a9.29 9.29 0 0 1-4.64 1.18c-2.2 0-3.94-.63-5.24-1.89S-417 26.68-417 24.6c-.03-1.21.21-2.41.69-3.53.47-1.11 1.19-2.12 2.09-2.95 1.85-1.75 3.98-2.62 6.4-2.62 2.3 0 4.1.83 5.4 2.49 1.3 1.67 1.7 3.86 1.23 6.58zm-3.48-2.81c-.27-1.96-1.42-2.94-3.44-2.94a4.78 4.78 0 0 0-2.73.81c-.79.53-1.42 1.27-1.8 2.13h7.97zm24.54 1.16a10.14 10.14 0 0 1-3.19 6.09c-1.62 1.54-3.78 2.38-6.02 2.36-2.56 0-4.26-.84-5.29-2.57l-1.99 8.7H-401l5.34-23 4.36.01-.38 1.51c1.37-1.05 3-1.52 5.02-1.52.98-.02 2.03.18 2.92.6.88.42 1.61.98 2.21 1.75 1.32 1.61 1.79 3.63 1.4 6.07zm-5.91 3.45c.98-.91 1.62-2.13 1.8-3.45.24-1.46 0-2.62-.7-3.5-.71-.87-1.71-1.31-3.01-1.31-1.26.03-2.46.5-3.39 1.35a5.53 5.53 0 0 0-1.94 3.46c-.24 1.41.03 2.55.81 3.44.37.43.82.77 1.34 1 .51.23 1.07.34 1.63.33 1.29.02 2.53-.45 3.47-1.32h-.01zm22.23 5.13h-4.21l.43-1.67c-1.33 1.05-3.01 1.67-4.95 1.67-.87 0-1.91-.2-2.78-.68-.84-.46-1.61-1.04-2.2-1.81-1.28-1.61-1.73-3.63-1.35-6.06.31-2.34 1.41-4.5 3.1-6.1 1.57-1.53 3.66-2.37 5.83-2.35 2.49 0 4.23.84 5.2 2.53l.52-2.45h4.22l-3.81 16.92zm-2.31-8.55c.23-1.4-.04-2.55-.79-3.44-.36-.43-.8-.77-1.3-1a3.62 3.62 0 0 0-1.58-.33c-1.25-.03-2.45.44-3.37 1.31a5.88 5.88 0 0 0-1.75 3.46c-.23 1.45 0 2.61.69 3.48.68.88 1.66 1.31 2.92 1.31 1.22-.01 2.39-.49 3.3-1.34a5.6 5.6 0 0 0 1.88-3.45zm9.13 3.28a2.15 2.15 0 0 0 .38.94 2.22 2.22 0 0 0 .76.67 4.27 4.27 0 0 0 2.13.54 3.02 3.02 0 0 0 1.78-.47c.2-.11.37-.27.49-.46s.19-.41.2-.64c0-.57-.41-.97-1.22-1.21l-3-.94c-2.33-.7-3.5-2.1-3.5-4.2-.02-.68.13-1.36.42-1.98.3-.62.73-1.16 1.27-1.59 1.14-.92 2.66-1.39 4.59-1.39 1.77 0 3.26.39 4.47 1.18 1.22.79 1.95 1.79 2.22 2.99l-3.45 1.03a2.09 2.09 0 0 0-.35-.86c-.17-.27-.41-.49-.68-.65-.66-.4-1.43-.6-2.21-.57-.82 0-1.4.15-1.75.44-.16.13-.29.29-.38.48a1.25 1.25 0 0 0-.13.6c0 .62.57 1.12 1.72 1.48l1.86.57c2.71.84 4.06 2.32 4.06 4.41a4.05 4.05 0 0 1-.49 2.04 4.07 4.07 0 0 1-1.43 1.54c-1.27.88-2.86 1.32-4.77 1.32a9.54 9.54 0 0 1-4.54-1.06c-.61-.31-1.15-.74-1.58-1.27a4.74 4.74 0 0 1-.88-1.82l4.01-1.12zm15.99 0c.06.34.19.66.39.94a2.19 2.19 0 0 0 .76.66 4.18 4.18 0 0 0 2.13.55c.63.03 1.26-.14 1.79-.47.2-.11.37-.27.49-.46.12-.2.19-.41.2-.64 0-.57-.41-.97-1.22-1.21l-3-.94c-2.35-.71-3.53-2.11-3.53-4.2-.01-.68.13-1.36.43-1.98.29-.62.73-1.16 1.27-1.59 1.14-.92 2.66-1.39 4.58-1.39 1.78 0 3.28.39 4.49 1.18 1.22.79 1.96 1.79 2.22 2.99l-3.46 1.03c-.05-.31-.17-.6-.35-.87-.17-.26-.41-.48-.68-.64-.66-.4-1.44-.6-2.22-.57-.81 0-1.4.15-1.74.44-.17.13-.3.29-.39.48a1.25 1.25 0 0 0-.13.6c0 .62.57 1.11 1.72 1.48l1.87.56c2.71.85 4.07 2.32 4.07 4.42a3.98 3.98 0 0 1-.48 2.03c-.33.63-.82 1.16-1.42 1.55-1.26.88-2.86 1.32-4.78 1.32a9.54 9.54 0 0 1-4.54-1.06 4.67 4.67 0 0 1-1.58-1.27 4.58 4.58 0 0 1-.89-1.81l4-1.13z"></path></defs><use id="R" href="#R" transform="matrix(.11 0 0 .11 -1255 7)"></use><g clip-path="url(#B)" class="N"><use xlink:href="#O" fill="#dadada"></use></g><g fill="#b2b2b2"><use xlink:href="#P" class="N"></use><path d="M-425 32.5l5.07-24h3.93l-5.05 24H-425z"></path><use xlink:href="#Q" class="N"></use><path d="M-442.81 14.44l-4.03 18.06h-4.25l4.06-18.07H-454l.88-3.93H-435l-.87 3.93-6.94.01z"></path></g><g clip-path="url(#C)" class="N"><use xlink:href="#O" fill="#fee01a"></use></g><g fill="#0057b7"><use xlink:href="#P" class="N"></use><path d="M-425 32.5l5.07-24h3.93l-5.05 24H-425z"></path><use xlink:href="#Q" class="N"></use><path d="M-442.81 14.44l-4.03 18.06h-4.25l4.06-18.07H-454l.88-3.93H-435l-.87 3.93-6.94.01z"></path></g><use id="S" href="#S" transform="matrix(.126 0 0 .126 -650 5)"></use><path d="M199 43h39V4h-39v39z" fill="#fff"></path><g fill="#db0011"><path d="M238 4v39l19-19.48L238 4z"></path><path d="M199 4l19.5 20L238 4h-39z"></path><path d="M199 4l-19 19.52L199 43V4z"></path><path d="M199 43h39l-19.5-20L199 43z"></path></g><path d="M273.5 23.6h-7V30H263V15h3.5v6.15h7V15h3.5v15h-3.5v-6.4z"></path><path d="M285.62 29.96c-3.47 0-6.3-1.31-6.35-4.89h3.47c.05 1.6 1.04 2.57 2.93 2.57 1.4 0 3.02-.67 3.02-2.15 0-1.17-1.08-1.51-2.89-2.02l-1.17-.29c-2.52-.67-5.04-1.6-5.04-4.3 0-3.32 3.33-4.46 6.35-4.46 3.11 0 5.81 1.01 5.86 4.34h-3.47c-.14-1.35-.99-2.15-2.62-2.15-1.3 0-2.56.63-2.56 1.98 0 1.09 1.08 1.43 3.33 2.1l1.35.38c2.75.8 4.51 1.69 4.51 4.21-.05 3.37-3.56 4.68-6.72 4.68zm8.66-15.24h5.59c1.03-.05 2.11 0 3.15.16 1.94.43 3.43 1.6 3.43 3.63 0 1.93-1.31 2.9-3.2 3.36 2.16.38 3.78 1.39 3.78 3.62 0 3.42-3.6 4.17-6.4 4.17h-6.31l-.04-14.94zm5.59 6.23c1.53 0 3.11-.3 3.11-2.02 0-1.56-1.45-1.98-2.89-1.98h-2.43v4h2.21zm.31 6.48c1.62 0 3.2-.34 3.2-2.19s-1.35-2.19-3.02-2.19h-2.75v4.38h2.57z" class="N"></path><g clip-path="url(#E)" class="N"><path d="M316.04 29.96c-5.18 0-7.48-3.08-7.48-7.67 0-4.58 2.57-7.91 7.66-7.91 3.2 0 6.31 1.35 6.4 4.71h-3.6c-.18-1.51-1.26-2.27-2.8-2.27-3.15 0-4.1 3.16-4.1 5.56s.95 5.18 3.97 5.18c1.58 0 2.75-.8 2.97-2.32h3.61c-.36 3.45-3.29 4.72-6.63 4.72z"></path></g><g class="N"><path d="M-238.44 4.66c0 4.3 7.18 9.08 7.18 13.99 0 0 0 .48-.2.98 6.71 1.43 11.46 4.78 11.46 8.71 0 5.29-8.47 9.66-18.97 9.66-10.72 0-19.03-4.3-19.03-9.45 0-3.93 5.15-7.12 11.36-8.81 0 2.17 7.07 9.04 7.24 11.82.02.32.08.59 0 .92 1.53-.82 1.53-3.36 1.53-3.36 0-6.03-6.88-8.7-6.88-14.63 0-2.31 1.07-4 2.03-4.47v1.65c0 4.31 7.44 9.12 7.44 13.05v1.29c1.73-.68 1.73-3.9 1.73-3.9 0-5.42-6.91-8.44-6.91-14.64 0-2.3 1.06-3.99 2.02-4.47v1.66zM-203.63 37c-3.7 0-6.37-1.02-6.37-1.02v-6.23h.91c.48 3.29 3.05 5.8 6 5.8 2.94 0 5.01-1.58 5.01-4.09 0-2.67-2.74-3.89-4.57-4.78l-2.64-1.28c-2.51-1.22-4.54-3.2-4.54-5.97 0-3.46 2.64-6.43 7.69-6.43a19.08 19.08 0 0 1 6.29 1.12v5.57h-.91c-.54-2.97-2.24-5.31-5.69-5.31-2.57 0-4.1 1.72-4.1 3.47 0 2.27 1.63 3.29 3.52 4.22l2.65 1.28c2.4 1.19 5.38 3.17 5.38 6.53 0 4.28-3.05 7.12-8.63 7.12zm10.63-3.86c0-1.66 1.24-2.93 3.95-3.9l4.77-1.69V26.1c0-2.17-1.03-3.51-2.58-3.51-1.06 0-2.12.51-2.65 1.34-.21.31-.24.76-.24 1.1 0 .59.38 1.28.38 1.28l-2.32 1.04c-.29-.49-.64-1.21-.64-1.94 0-.13.04-.27.04-.38.17-1.24 1.27-2.06 2.75-2.92 1.45-.87 2.68-1.11 3.56-1.11 4.45 0 5.23 3.45 5.23 4.59v7.14c0 1.13.1 1.86 1.05 1.86.29 0 .46 0 .85-.14l.85-.28v1.04l-4.94 1.79c-.74-.51-1.1-1.45-1.24-2.24-1.16.97-3.17 2.24-4.87 2.24-2.4 0-3.95-1.55-3.95-3.86zm5.4-3.11c-.74.32-2.05.9-2.05 2.56 0 .89.53 2.34 2.37 2.34.88 0 2.11-.48 3-1.17v-5.11l-3.32 1.38zM-177 36v-.84l1.13-.22c.68-.14 1.16-.67 1.16-1.37v-9.41c0-.81-.38-1.24-1.06-1.24-.24 0-.51.04-.79.15l-.44.17v-1.05l4.92-2.19h.72v2.61c1.5-1.73 3.27-2.61 4.85-2.61 3.48 0 5.15 2.57 5.15 5.57v8c0 .7.52 1.27 1.2 1.37l1.16.22V36h-8.13v-.84l1.13-.22c.68-.14 1.23-.67 1.23-1.37v-7.96c0-1.06-.28-3.42-3.01-3.42-1.5 0-2.77.95-3.52 1.65v9.73c0 .7.55 1.23 1.23 1.37l1.13.22V36H-177zm28.4-12.31h-4.65v8.3c0 1.83.96 2.84 2.36 2.84.56 0 1.46-.17 2.29-.64l.37.8-3 1.91s-.59.1-.89.1c-2.89 0-4.45-1.7-4.45-5.32v-7.99H-159v-.84s3.65-1.4 5.08-4.85h.67v4.25h5.25l-.6 1.44zm2.6 9.45c0-1.66 1.23-2.93 3.95-3.9l4.77-1.69V26.1c0-2.17-1.03-3.51-2.58-3.51-1.06 0-2.12.51-2.65 1.34-.21.31-.25.76-.25 1.1 0 .59.4 1.28.4 1.28l-2.33 1.04c-.29-.49-.64-1.21-.64-1.94 0-.13.04-.27.04-.38.17-1.24 1.27-2.06 2.75-2.92 1.45-.87 2.68-1.11 3.56-1.11 4.45 0 5.23 3.45 5.23 4.59v7.14c0 1.13.1 1.86 1.06 1.86.28 0 .46 0 .84-.14l.85-.28v1.04l-4.94 1.79c-.74-.51-1.09-1.45-1.24-2.24-1.16.97-3.17 2.24-4.87 2.24-2.4 0-3.95-1.55-3.95-3.86zm5.4-3.11c-.74.32-2.05.9-2.05 2.56 0 .89.53 2.34 2.37 2.34.88 0 2.12-.48 3-1.17v-5.11l-3.32 1.38zM-131 36v-.84l1.13-.22c.68-.14 1.16-.67 1.16-1.37v-9.41c0-.81-.38-1.24-1.06-1.24-.24 0-.51.04-.79.15l-.44.17v-1.05l4.92-2.19h.72v2.61c1.5-1.73 3.28-2.61 4.85-2.61 3.48 0 5.15 2.57 5.15 5.57v8c0 .7.52 1.27 1.2 1.37l1.16.22V36h-8.13v-.84l1.13-.22c.68-.14 1.23-.67 1.23-1.37v-7.96c0-1.06-.27-3.42-3.01-3.42-1.5 0-2.76.95-3.52 1.65v9.73c0 .7.55 1.23 1.23 1.37l1.13.22V36H-131zm26.1 0c-3.22 0-7.1-2.31-7.1-7.31 0-4.39 3.53-7.98 8.26-7.98 1.58 0 2.71.3 3.54.63v-7.55c0-.79-.45-1.02-1-1.02a3.22 3.22 0 0 0-.96.16l-.69.23v-.99l5.36-2.17h.71v21.72c0 1.25.21 1.97 1.13 1.97.28 0 .45 0 .83-.13l.82-.26v.99L-98.8 36c-.75-.49-1.13-1.42-1.3-2.17-.89.92-2.5 2.17-4.8 2.17zm1.54-13.9c-2.47 0-5.01 1.51-5.01 5.92 0 3.7 1.93 5.94 4.94 5.94 1.82 0 2.95-1.02 3.23-1.55v-8.57c-.45-1.09-1.72-1.74-3.16-1.74zm14.88 5.66v.17c-.04 4.59 2.53 6.9 5.75 6.9 1.62 0 3.11-.62 4.29-1.55v1.38c-1.35 1.27-3.41 2.34-5.95 2.34-5.28 0-7.61-4.03-7.61-7.86 0-4.49 3.35-8.14 7.67-8.14 3.56 0 6.33 2.55 6.33 6.31v.45h-10.48zm6.93-1.41v-.07c0-2.59-1.42-3.83-3.11-3.83-1.9 0-3.32 1.28-3.72 3.9h6.83zM-77 36v-.84l1.16-.21c.67-.14 1.2-.67 1.2-1.37v-9.37c0-.81-.39-1.23-1.09-1.23-.25 0-.53.04-.81.14l-.46.18v-1.05l5-2.18h.74v3.4C-70 21.02-68.48 20-66.76 20c1.41 0 1.76.35 1.76.35v3.72h-.7c-.18-.98-.85-1.47-1.9-1.47-1.13 0-2.54.31-3.52 2.35v8.63c0 .7.7 1.26 1.37 1.37l1.69.21V36H-77z" fill="#e41f36"></path><path d="M-834.19 25.93c-2.17-.55-3.26-.73-3.26-1.45 0-.55.54-1.27 1.99-1.27 1.09 0 2.17.54 2.72 1.45.18.18.36.18.54.18l2.9-1.63c.18 0 .18-.18.18-.36v-.36c-1.27-1.99-3.26-3.08-6.16-3.08h-.18c-1.99 0-3.8.72-4.89 1.81-.9.9-1.45 1.99-1.45 3.26 0 3.44 2.9 4.52 5.62 5.07h.18c1.63.36 3.08.54 3.08 1.26 0 .73-.73 1.45-2 1.45-1.44 0-2.53-.54-3.07-1.81 0-.18-.19-.18-.19-.18h-.36l-3.26 1.81c-.18 0-.18.18-.18.18v.36c1.27 2.36 3.44 3.45 6.7 3.45h.18c2.54 0 4.17-1.09 4.89-1.82a5.26 5.26 0 0 0 1.45-3.44c.18-3.25-2.54-4.16-5.43-4.88zm14.3 0c-2.17-.55-3.26-.73-3.26-1.45 0-.55.55-1.27 1.99-1.27 1.09 0 2.18.54 2.72 1.45.18.18.36.18.54.18l2.9-1.63c.18 0 .18-.18.18-.36v-.36c-1.27-1.99-3.26-3.08-6.15-3.08h-.19c-1.99 0-3.8.72-4.89 1.81-.9.9-1.44 1.99-1.44 3.26 0 3.44 2.89 4.52 5.61 5.07h.18c1.63.36 3.08.54 3.08 1.26 0 .73-.73 1.45-1.99 1.45-1.45 0-2.54-.54-3.08-1.81 0-.18-.18-.18-.18-.18h-.36l-3.26 1.81c-.18 0-.18.18-.18.18v.36c1.26 2.36 3.44 3.45 6.7 3.45h.18c2.53 0 4.16-1.09 4.88-1.82a5.26 5.26 0 0 0 1.45-3.44c.36-3.25-2.35-4.16-5.43-4.88zm57.94 2.89v-4.7a.39.39 0 0 1 .36-.37h2.53a.4.4 0 0 0 .37-.36v-3.08a.4.4 0 0 0-.37-.36h-2.53a.39.39 0 0 1-.36-.36V14.7c0-.36-.37-.54-.55-.36l-3.62 1.99c-.18.18-.18.36-.18.54v2.72a.39.39 0 0 1-.36.36h-1.63a.39.39 0 0 0-.36.36v3.08a.39.39 0 0 0 .36.36h1.63a.39.39 0 0 1 .36.37v5.79c0 3.44 2.72 6.15 5.98 6.15h1.63c.18 0 .18-.18.18-.36v-3.8c0-.18-.18-.18-.37-.18-.18 0-.36.18-.72.18-1.09 0-1.99-.72-2.35-1.81.18-.18 0-.54 0-1.27zm9.77-.72v-7.79a.39.39 0 0 0-.36-.36h-3.62a.39.39 0 0 0-.36.36v8.33c0 2.36.72 4.35 1.81 5.61 1.08 1.45 2.89 2.18 4.89 2.18 1.63 0 3.07-.37 4.52-1.45v.9a.4.4 0 0 0 .36.37h3.63a.4.4 0 0 0 .36-.37V20.31a.39.39 0 0 0-.36-.36h-3.63a.39.39 0 0 0-.36.36v7.79c0 2.53-1.27 4.16-3.44 4.16s-3.44-1.63-3.44-4.16zm-29.87 0v-7.79a.39.39 0 0 0-.36-.36h-3.62a.39.39 0 0 0-.36.36v8.33c0 2.36.72 4.35 1.81 5.61 1.26 1.45 2.89 2.18 5.06 2.18 1.63 0 3.08-.37 4.53-1.45v.9a.4.4 0 0 0 .36.37h3.81a.4.4 0 0 0 .36-.37V20.31a.39.39 0 0 0-.36-.36h-3.63a.39.39 0 0 0-.36.36v7.79c0 2.53-1.27 4.16-3.44 4.16-2.53 0-3.8-1.63-3.8-4.16z" class="O"></path></g><g clip-path="url(#F)" class="N O"><path d="M-715.42 11.08h-3.81a.39.39 0 0 0-.36.36V35.7a.39.39 0 0 0 .36.36h3.81a.39.39 0 0 0 .36-.36V11.44c-.18-.18-.18-.36-.36-.36z"></path></g><path d="M-852.84 19.77c1.63 0 3.08.54 4.35 1.45v-.91a.39.39 0 0 1 .36-.36h3.62a.39.39 0 0 1 .36.36V35.7a.39.39 0 0 1-.36.36h-3.62a.39.39 0 0 1-.36-.36v-.9c-1.09.9-2.54 1.63-3.99 1.63-4.89 0-8.33-3.44-8.33-8.51 0-4.89 3.26-8.33 7.97-8.15zm-3.44 8.15c0 2.71 1.63 4.52 3.98 4.52 2.36 0 3.99-1.99 3.99-4.52 0-2.54-1.63-4.35-3.99-4.35-2.35 0-3.98 1.81-3.98 4.35zm125.29-8.15c1.63 0 3.07.54 4.34 1.45v-.91a.39.39 0 0 1 .36-.36h3.8a.39.39 0 0 1 .37.36V35.7a.39.39 0 0 1-.37.36h-3.8a.39.39 0 0 1-.36-.36v-.9c-1.09.9-2.53 1.63-3.98 1.63-4.89 0-8.33-3.44-8.33-8.51 0-4.89 3.26-8.33 7.97-8.15zm-3.44 8.15c0 2.71 1.62 4.52 3.98 4.52 2.35 0 3.98-1.99 3.98-4.52 0-2.54-1.63-4.35-3.98-4.35-2.36 0-4.16 1.81-3.98 4.35z" class="N O"></path><g clip-path="url(#G)" class="N O"><path d="M-866.24 11.26l-8.14 12.49-8.15-12.31c0-.36-.18-.36-.18-.36h-2.72c-.18 0-.54.18-.54.54V35.7c0 .18.18.55.54.55h3.62c.18 0 .55-.19.55-.55V20.86l6.88 10.5c.18.36.54.36.72 0l6.88-10.5v14.66c0 .18.18.54.54.54h3.62c.19 0 .55-.18.55-.54v-23.9c0-.18-.18-.54-.55-.54h-3.26c-.18 0-.18 0-.36.18z"></path></g><g clip-path="url(#H)" class="N O"><path d="M-792.55 11.26l-8.15 12.49-8.15-12.31c0-.36-.18-.36-.36-.36h-2.71c-.18 0-.55.18-.55.54V35.7c0 .18.18.55.55.55h3.62c.18 0 .54-.19.54-.55V20.86l6.88 10.5c.18.36.54.36.73 0l6.69-10.5v14.66c0 .18.18.54.55.54h3.62c.18 0 .54-.18.54-.54v-23.9c0-.18-.18-.54-.54-.54h-2.72c-.36 0-.36 0-.54.18z"></path></g><path d="M-891.77 32.62c0-2.17-1.63-3.8-3.62-3.8s-3.62 1.63-3.62 3.8c0 2.18 1.63 3.81 3.62 3.81s3.62-1.63 3.62-3.81zm-11.58 0c0-2.17-1.63-3.8-3.62-3.8s-3.62 1.63-3.62 3.8c0 2.18 1.63 3.81 3.62 3.81s3.62-1.63 3.62-3.81z" class="N O"></path><g clip-path="url(#I)" class="N O"><path d="M-914.76 32.65c0-2.17-1.63-3.8-3.62-3.8s-3.62 1.63-3.62 3.8c0 2.18 1.63 3.81 3.62 3.81s3.62-1.63 3.62-3.81z"></path></g><g class="N"><path d="M-897.56 23.39c0-2.17-1.63-3.8-3.62-3.8s-3.62 1.63-3.62 3.8 1.63 3.8 3.62 3.8 3.62-1.63 3.62-3.8zm-11.4 0c0-2.17-1.63-3.8-3.63-3.8-1.99 0-3.62 1.63-3.62 3.8s1.63 3.8 3.62 3.8c2 0 3.63-1.63 3.63-3.8z" class="O"></path><path d="M-1033.62 10.12l3.71 26.73h-7.15l-1.47-10.94-5.48 10.94-5.04-10.94 1.39-13.48 3.65 8.05 4.85-10.36h5.54zm-15.67 0l-2.94 26.73h-6.77l2.92-26.73h6.79z" fill="#ed1c24"></path><path d="M-986.36 36.71l.06.12h-1.85l-3.71-4.86-1.73 1.98v2.88h-1.47v-9.4h1.47v4.75l4.86-4.72h2.03l-4.08 3.57 4.42 5.68zm-12.63.14l-4.98-7.43v7.41h-1.45v-9.4h1.71l4.98 7.49v-7.49h1.47v9.42h-1.73zm-11.85-9.41l4.21 9.41h-1.41l-1.02-2.12h-5.3l-.89 2.12h-1.41l4.21-9.41h1.61zm1.13 5.82l-1.91-4.34-1.91 4.34h3.82zm-8.86-1.28a2.43 2.43 0 0 1 1.29 2.37c.04.7-.25 1.38-.77 1.85a3.58 3.58 0 0 1-2.23.65h-6.19v-9.41h6.25a2.54 2.54 0 0 1 .39 0c1.34.11 2.33 1.29 2.22 2.63 0 .75-.35 1.47-.96 1.91zm-6.51-.7h4.98c.31.01.61-.11.83-.32.42-.46.42-1.18 0-1.66-.22-.21-.52-.34-.83-.32h-4.98v2.3zm4.78 4.02c1.03 0 1.53-.32 1.53-1.21s-.44-1.28-1.33-1.28h-4.98v2.57h4.8l-.02-.08zm27.19-25.3a6.83 6.83 0 0 1 6.76 6.9v.13a6.89 6.89 0 0 1-7.01 6.78c-3.81-.06-6.82-3.21-6.76-7.03s3.21-6.86 7.01-6.78zm0 10.28c1.85 0 3.35-1.5 3.35-3.36s-1.5-3.36-3.35-3.36a3.32 3.32 0 0 0-3.32 3.33 3.32 3.32 0 0 0 3.32 3.33v.06zm-7.72-5.81c-.03 1.35-.75 2.59-1.91 3.26l2.62 5.88h-4.03l-2.36-5.57h-.06v5.63h-3.5V10.12h4.65c2.68 0 4.59 1.46 4.59 4.35zm-5.68 1.97c1.29 0 2.12-.44 2.12-1.65s-.77-1.66-2.12-1.66v3.31zm-13.27-6.32h8.36l-.06 3.39h-2.36v10.18h-3.52V13.51h-2.42v-3.39zm-8.74 0h7.27v3.58h-3.7v1.41h2.74v3.57h-2.74v1.42h3.7v3.57h-7.27V10.12z"></path><path d="M6.26 23.78c-.22-.81-.54-2.43-2.37-2.43-.96 0-1.68.61-1.68 1.6 0 2.46 5.38 2.3 5.38 5.72 0 2.27-2.12 3.11-4.14 3.11-1.46 0-2.42-.37-2.96-.64C.08 30.13 0 29.41 0 28.13l.79-.16c.24.96.79 3.2 2.95 3.2 1.06 0 1.76-.71 1.76-1.78 0-2.7-5.21-2.49-5.21-5.77 0-2.03 1.58-2.88 3.75-2.88 1.26 0 2.02.26 2.64.59.14.79.19 1.64.19 2.45h-.61zm8.52 7.18c-.51.29-1.3.82-2.56.82-2.61 0-2.73-1.44-2.73-3.22v-2.32c0-.56 0-1.28-.5-1.28-.26 0-.47.08-.54.1v-.46c1.26-.4 2.19-.53 3.06-.58v4.49c0 1.27.25 2.34 1.9 2.34.64 0 1.03-.29 1.26-.4v-4.21c0-.56 0-1.28-.5-1.28-.25 0-.47.08-.54.1v-.46c1.26-.4 2.19-.53 3.07-.58v4.78c0 1.31 0 1.94.57 1.94.1 0 .3.01.47-.02l.03.42c-.77.25-1.7.48-2.54.64l-.45-.82zm5.06-4.72c0-.56 0-1.28-.5-1.28-.26 0-.47.08-.54.1v-.46c1.26-.4 2.15-.53 3.03-.58v.93c.42-.35 1.23-.93 2.66-.93 1.51 0 2.54.69 2.54 2.85v3.15c0 .84.08 1.02.69 1.07l.35.03v.42h-4.11v-.42l.36-.03c.6-.05.69-.23.69-1.07v-2.27c0-1.27 0-2.8-1.75-2.8a1.88 1.88 0 0 0-1.4.61v4.46c0 .84.08 1.02.69 1.07l.35.03v.42h-4.07v-.42l.35-.03c.58-.05.66-.23.66-1.07v-3.78zm26.68 20.01l.39-.05c.81-.09.81-.12.81-1.88v-5.86c0-1.68 0-1.76-.8-1.88l-.4-.05v-.42h7.76c.13.82.18 1.75.18 2.59l-.6.07c-.36-1.51-.44-2.05-2.63-2.05H49.9v4.45h1.32c1.31 0 1.64 0 1.76-.69l.1-.56h.44v3.21h-.44l-.08-.6c-.14-.64-.56-.64-1.77-.64H49.9v2.43c0 1.71 0 1.76.81 1.88l.39.05v.42h-4.58v-.42zM57.4 35.59c.64 0 1.18.49 1.18 1.1 0 .67-.54 1.14-1.18 1.14-.67 0-1.17-.49-1.17-1.14 0-.61.5-1.1 1.17-1.1zm-1.93 10.66l.35-.03c.61-.07.69-.23.69-1.07v-3.78c0-.56 0-1.28-.5-1.28-.25 0-.48.08-.54.1v-.46c1.26-.4 2.19-.53 3.06-.58v6c0 .84.08 1 .69 1.07l.35.03v.42h-4.1v-.42zm6.26-4.88c0-.56 0-1.28-.51-1.28-.25 0-.47.08-.53.1v-.46c1.26-.4 2.15-.53 3.02-.58v.93c.42-.35 1.23-.93 2.66-.93 1.52 0 2.54.69 2.54 2.85v3.15c0 .85.09 1.02.69 1.07l.36.03v.42h-4.11v-.42l.35-.03c.61-.05.69-.22.69-1.07v-2.27c0-1.27 0-2.8-1.74-2.8-.7 0-1.13.34-1.4.61v4.46c0 .85.08 1.02.69 1.07l.35.03v.42h-4.07v-.42l.35-.03c.58-.05.66-.22.66-1.07v-3.78z" style="fill:#fff;" class="P"></path></g><g clip-path="url(#J)" class="N P"><path d="M78.51 46.51c-.22.11-.71.4-1.44.4-1.08 0-1.39-.42-1.66-.82-.47.32-1.16.82-2.33.82-1.32 0-2.21-.72-2.21-1.75 0-2.01 2.96-2.55 4.36-2.91v-.38c0-.94-.27-1.79-1.46-1.79-1.3 0-1.79 1.1-2.01 1.58h-.16a2.31 2.31 0 0 1-.46-.81c.76-.79 1.92-1.7 3.62-1.7 2.12 0 2.49 1.04 2.49 2.86v1.97c0 1.15 0 2.34 1.08 2.34.05 0 .08 0 .13-.02l.05.21zm-3.28-3.52c-.07 0-.12-.02-.18-.02-.96 0-2.03.48-2.03 1.67 0 .76.49 1.34 1.25 1.34.57 0 .89-.29 1.03-.38l-.07-.87v-1.74z" style="fill:#fff;"></path></g><path d="M80.24 41.37c0-.56 0-1.28-.5-1.28-.25 0-.47.08-.54.1v-.46c1.26-.4 2.16-.53 3.03-.58v.93c.42-.35 1.23-.93 2.66-.93 1.51 0 2.54.69 2.54 2.85v3.15c0 .85.09 1.02.69 1.07l.35.03v.42h-4.1v-.42l.35-.03c.61-.05.69-.22.69-1.07v-2.27c0-1.27 0-2.8-1.75-2.8-.69 0-1.13.34-1.4.61v4.46c0 .85.09 1.02.7 1.07l.35.03v.42h-4.07v-.42l.35-.03c.57-.05.65-.22.65-1.07v-3.78z" style="fill:#fff;" class="N P"></path><g clip-path="url(#K)" class="N P"><path d="M96.09 46.09c-.54.37-1.41.82-3.03.82-1.83 0-3.94-1.2-3.94-3.54 0-2.95 2.54-4.22 4.43-4.22 1.19 0 1.85.22 2.29.53-.09.53-.24.83-.66 1.31h-.15c-.37-.4-.96-1.04-1.94-1.04-1.07 0-1.81.98-1.81 2.59 0 2.38 1.44 3.44 3.13 3.44.59 0 1.29-.19 1.53-.27l.15.38z" style="fill:#fff;"></path></g><path d="M97.73 36.69c0 .65.5 1.14 1.17 1.14.64 0 1.18-.47 1.18-1.14 0-.61-.54-1.1-1.18-1.1-.67 0-1.17.49-1.17 1.1zm-.76 9.98h4.1v-.42l-.35-.03c-.6-.07-.69-.23-.69-1.07v-6c-.87.05-1.8.18-3.06.58v.46c.06-.02.29-.1.54-.1.5 0 .5.72.5 1.28v3.78c0 .84-.08 1-.69 1.07l-.35.03v.42z" style="fill:#fff;" class="N P"></path><g clip-path="url(#L)" class="N P"><path d="M109.91 46.51c-.22.11-.71.4-1.45.4-1.08 0-1.38-.42-1.65-.82-.47.32-1.16.82-2.34.82-1.31 0-2.2-.72-2.2-1.75 0-2.01 2.96-2.55 4.36-2.91v-.38c0-.94-.27-1.79-1.47-1.79-1.29 0-1.78 1.1-2 1.58h-.17c-.23-.3-.32-.43-.45-.81.75-.79 1.92-1.7 3.62-1.7 2.12 0 2.49 1.04 2.49 2.86v1.97c0 1.15 0 2.34 1.07 2.34.05 0 .09 0 .14-.02l.05.21zm-3.28-3.52c-.07 0-.12-.02-.19-.02-.96 0-2.02.48-2.02 1.67 0 .76.49 1.34 1.25 1.34.57 0 .89-.29 1.02-.38l-.06-.87v-1.74z" style="fill:#fff;"></path></g><g class="N"><path d="M110.58 46.25l.36-.03c.6-.06.69-.23.69-1.07v-7.21c0-1.41 0-2.03-.58-2.03-.2 0-.4.03-.47.03v-.42c1.4-.27 2.16-.37 3.06-.37v10c0 .84.09 1.01.7 1.07l.35.03v.42h-4.11v-.42zm-95.49-.01l.41-.05c.79-.14.79-.08.79-1.9v-5.87c0-1.55 0-1.74-.79-1.86l-.41-.04v-.42h4.58v.42l-.4.04c-.79.12-.79.31-.79 1.86v7.4c.5.12.63.23 1.16.23 2.37 0 2.39-1.09 2.87-2.42l.61.11c-.1 1.04-.22 1.89-.59 2.92h-7.44v-.42zm10.76-10.67c.64 0 1.18.5 1.18 1.11 0 .67-.54 1.13-1.18 1.13-.67 0-1.18-.48-1.18-1.13 0-.61.51-1.11 1.18-1.11zm-1.93 10.67l.35-.03c.61-.07.69-.23.69-1.07v-3.78c0-.56 0-1.28-.51-1.28-.25 0-.47.08-.53.1v-.46c1.26-.4 2.18-.53 3.06-.58v6c0 .84.08 1 .69 1.07l.35.03v.42h-4.1v-.42zm6.24-6.86c0-2.22 1.17-4.48 3.81-4.48.89 0 1.46.26 1.83.53-.12.5-.25.8-.67 1.2h-.12c-.32-.29-1.09-.93-1.75-.93-1.01 0-1.08 1.3-1.08 2.77v.91l2.09.14v.42l-2.09.16v5.04c0 .84.09 1.02.71 1.07l.67.03v.42h-4.44v-.42l.34-.03c.62-.07.7-.23.7-1.07v-5.76zm11.83 6.49c-.44.34-1.5 1.03-3.2 1.03-1.98 0-3.94-1.2-3.94-3.78 0-2.54 1.94-3.98 3.86-3.98 2.71 0 3.14 1.68 3.33 2.61-1.45.63-3.32 1.15-5.07 1.53.19.96.69 2.69 3 2.69a4.08 4.08 0 0 0 1.85-.47l.17.37zm-5.12-3.34c1.06-.16 2.12-.37 3.15-.69-.12-1.15-.63-2.09-1.69-2.09-1.46 0-1.46 2.49-1.46 2.78z" style="fill:#fff;" class="P"></path><g fill="#fdbd10"><path d="M52.51 5.36a10.01 10.01 0 0 1 .66-3.9l-.14-.09c-1.06.85-1.93 1.9-2.57 3.08a13.9 13.9 0 0 1 2.05.91zM45.4 3.69A10.12 10.12 0 0 1 43.98 0h-.16c-.48 1.27-.7 2.61-.65 3.96a14.14 14.14 0 0 1 2.23-.27zm3.67.36c-.39-1.27-.53-2.6-.39-3.93l-.16-.05c-.8 1.1-1.36 2.34-1.67 3.65.75.05 1.49.16 2.22.33zm6.42 3.47c.31-1.29.88-2.51 1.66-3.59l-.11-.12c-1.25.54-2.36 1.33-3.29 2.3.61.42 1.2.89 1.74 1.41zm2.3 2.87a10.03 10.03 0 0 1 2.56-3.02l-.08-.15a10.08 10.08 0 0 0-3.78 1.35c.48.57.92 1.17 1.3 1.82zm1.35 2.99l.12.39c.92-.96 2.03-1.72 3.26-2.25l-.04-.16a9.98 9.98 0 0 0-4 .31 12.9 12.9 0 0 1 .66 1.71zm.19 7.67c1.28-.35 2.63-.45 3.95-.29l.05-.15c-1.07-.83-2.3-1.42-3.61-1.76a13.51 13.51 0 0 1-.39 2.2zm.25-5.88a14.13 14.13 0 0 1 .21 2.23 10.26 10.26 0 0 1 3.73-1.31l.01-.17a10.31 10.31 0 0 0-3.95-.75zm-.69 7.26a13.35 13.35 0 0 1-.96 2.02 10.21 10.21 0 0 1 3.89.76l.09-.14a10.05 10.05 0 0 0-3.02-2.64zM41.73 4.33c.01-.01.02-.01.04-.02a9.98 9.98 0 0 1-2.34-3.19l-.16.04c-.13 1.35.01 2.71.41 3.99.65-.32 1.33-.6 2.05-.82zm11.02 25.26a10.2 10.2 0 0 1 2.97 2.62l.14-.07a10.25 10.25 0 0 0-1.25-3.81c-.58.47-1.2.89-1.86 1.26zm2.94-2.22a10.16 10.16 0 0 1 3.55 1.75l.12-.11c-.51-1.26-1.27-2.39-2.22-3.34a13.72 13.72 0 0 1-1.45 1.7zm-19.25-5.13c.75.02 1.51-.04 2.24-.14l-.25-.46c-1.09-2.03-1.84-4.09-2.27-6.04a9.67 9.67 0 0 1-1.52-.03c-1.5-.16-2.46-.95-2.46-.95a13.89 13.89 0 0 0-.3 5.49s1.1 2.14 4.56 2.13z"></path><path d="M34.32 26.07a11.98 11.98 0 0 1-.97-1.5 14.58 14.58 0 0 1-1.03-2.51l-.19-.59s.66 1.52 4.79 1.59c.71 0 1.45-.07 2.22-.19 1.14 1.88 2.47 3.49 3.85 4.77l-1.41.23c-5.13.53-7.26-1.8-7.26-1.8zm3.06-19.19l1.17-.78c.04-.02.08-.05.13-.08.67 2.25 1.58 4.72 2.73 7.31l-.53.24c-1.67.72-3.05 1.07-4.17 1.19-.73-3.31-.52-6.19.67-7.88zm-1.37 7.92c-.53-3.01-.25-5.69.84-7.5-2.08 1.72-3.56 3.99-4.34 6.48.27.25 1.32 1.08 3.5 1.02zm7.75 13.5c-2.41.57-5.17.75-7.48-.34 3.5 3.24 8.53 4.41 13.16 2.94-1.79-.1-3.78-1.03-5.68-2.6zm10.98-6.57c-1.17 1.55-3 3.11-5.22 4.4l-.73.37-.41.19c-.95.44-2.32 1-3.88 1.42 1.92 1.65 3.86 2.59 5.53 2.59.47-.17.94-.38 1.4-.61l.06-.03c.02-.01-1.59-2.04-2.14-2.75.06-.04.13-.07.2-.1.45-.24.84-.48 1.1-.67 1.94-1.29 3.35-2.84 4.26-4.34.44-.73.76-1.45.96-2.13l-.09-.05c-.24.56-.59 1.14-1.04 1.71zm-.25-9.92c-.43 1.28-1.24 2.62-2.36 3.91-1.49 1.73-3.52 3.37-5.93 4.69l-.35.18v.01l-.6.3-.57.26-2.47.96s-.5.18-1.03.3l.01.01-1.18.28c1.15 1.87 2.45 3.48 3.78 4.75 1.72-.41 3.16-.98 4.1-1.41l.44-.21-2.57-4.07c.01-.01.03-.01.04-.02l.57-.28 1.19-.7c1.96-1.24 3.61-2.86 4.83-4.52 1.1-1.5 1.86-3.03 2.16-4.33l-.06-.11zm-12.73 2.3l-.55.24c-1.09.46-2.64.99-4.31 1.19.47 1.83 1.23 3.78 2.27 5.7l.39.71c1.84-.36 3.51-1 4.7-1.52l.57-.26-.9-1.65c.03.05-1-1.99-1.52-3.02l-.25-.51.19-.1.23-.13c.06-.02.07-.02.05-.01l.64-.35c2.5-1.38 4.21-3.23 5.21-5.02.43-.77.74-1.54.91-2.24l-.09-.06A8.66 8.66 0 0 1 48.23 9c-1.18 1.64-3.05 3.3-5.4 4.59l-.1.04s-.3.18-.97.48z"></path></g></g><path d="M408.51 13.4h-13.66v3.83H388V43h84.83V17.23h-6.85V13.4h-13.66L430.42 4l-21.91 9.4z" fill="#004990"></path><g fill="#fff"><path d="M451.38 20.57v3.9l2.42.01.5-3.9-2.92-.01h0z"></path><path d="M465.71 22.27a1.18 1.18 0 0 1 1.19 1.19c0 .68-.55 1.19-1.19 1.19-.65 0-1.2-.51-1.2-1.19 0-.69.55-1.19 1.2-1.19zm.95 1.19c0-.57-.42-.99-.95-.99-.54 0-.97.42-.97.99s.43.99.97.99c.53 0 .95-.42.95-.99zm-1.2.68h-.21v-1.37h.52c.32 0 .48.12.48.39 0 .25-.15.36-.35.38l.39.6h-.23l-.36-.59h-.24v.59zm.25-.77c.17 0 .33-.01.33-.22 0-.17-.16-.2-.3-.2h-.28v.42h.25z" class="N"></path><path d="M401.87 34.03V19.74h-3.89v17.69h9.9v-3.4h-6.01zm39.13 3.4h9.26v-3.4h-5.35V31.8h5.35v-3.27h-5.35v-2.24h5.35v-3.42H441v.02 14.54z"></path><path d="M420.66 35.57c0 1.03-.83 1.86-1.85 1.86h-7.51c-1.02 0-1.85-.83-1.85-1.86V24.73c0-1.03.83-1.86 1.85-1.86h7.51c1.02 0 1.85.83 1.85 1.86v10.84zm-7.31-1.56h3.42v-7.72h-3.42v7.72zm25.43-11.14v12.7c0 1.03-.83 1.86-1.85 1.86h-4.6c-.78 0-1.5-.54-1.5-1.32 0 .78-.72 1.32-1.5 1.32h-4.6c-1.03 0-1.85-.83-1.85-1.86v-12.7h3.89v11.16h2.35V22.87h3.42v11.16h2.34V22.87h3.9zm25.53 10.87c-.07 2.16-1.64 3.43-1.66 3.44-.68.56-1.74.84-3.14.84-2.57 0-5.46-.96-5.49-.97l-.05-.02v-3.48l.1.03c.03.02 3.01 1.13 4.49 1.34h.03c.11.02.21.03.32.03.77 0 1.37-.36 1.51-.9.13-.51-.19-1.09-.81-1.47h-.01c-.55-.33-1.15-.6-1.72-.86-1.39-.63-2.82-1.28-3.72-2.84-.69-1.38-.6-3.23.22-4.4.97-1.43 2.47-2.15 4.44-2.15l.73.03c2.15.31 4.27 1.66 4.29 1.67l.03.02v3.18l-.1-.04-2.11-.89c-.54-.22-1.57-.59-2.47-.59-.57 0-1 .14-1.28.43-.26.23-.36.6-.32.84.15.86 1.49 1.38 1.93 1.56l.08.03c2.22.89 3.6 1.93 4.21 3.17l.03.05c.01.03.03.06.04.09l.03.05c.28.61.42 1.22.4 1.81z" class="N"></path></g><use id="T" href="#T" transform="matrix(.199 0 0 .199 551.48 3.5)"></use><use id="U" href="#U" transform="matrix(.273 0 0 .273 -1415 4)"></use></svg>