<svg xmlns="http://www.w3.org/2000/svg" xmlns:xlink="http://www.w3.org/1999/xlink" xmlns:v="https://vecta.io/nano" width="114" height="28" fill="none"><use xlink:href="#B" fill="#dadada"></use><g fill="#b2b2b2"><use xlink:href="#C"></use><path d="M41.971 20.891l3.546-16.788h2.749l-3.532 16.788h-2.763z"></path><use xlink:href="#D"></use><use xlink:href="#E"></use></g><use xlink:href="#B" fill="#fee01a"></use><g fill="#0057b7"><use xlink:href="#C"></use><path d="M41.971 20.891l3.546-16.788h2.749l-3.532 16.788h-2.763z"></path><use xlink:href="#D"></use><use xlink:href="#E"></use></g><defs><path id="B" d="M110.032.927H8.374c-1.784 0-3.33 1.21-3.728 2.924L.1 23.262c-.553 2.364 1.266 4.624 3.728 4.624h101.664c1.784 0 3.329-1.21 3.728-2.924l4.533-19.418c.552-2.357-1.266-4.617-3.721-4.617z"></path><path id="C" d="M10.732 5.327l7.555 7.17c.902.846.769 2.322-.259 3.001l-10.856 7.17c-1.441.951-3.309-.35-2.924-2.043L7.549 6.292c.329-1.448 2.106-1.987 3.183-.965zm31.106 10.017h-8.436c.035 1.637.888 2.455 2.567 2.455 1.175 0 2.092-.497 2.763-1.504l2.56.636c-.469 1.014-1.252 1.868-2.238 2.434-.993.555-2.115.84-3.253.825-1.532 0-2.756-.441-3.665-1.322-.902-.881-1.357-2.049-1.357-3.504-.021-.846.147-1.686.483-2.469s.836-1.485 1.462-2.063c1.301-1.224 2.791-1.833 4.484-1.833 1.609 0 2.868.588 3.77 1.749.909 1.161 1.189 2.693.86 4.596zm-2.434-1.966c-.189-1.364-.993-2.049-2.413-2.049a3.3 3.3 0 0 0-1.91.56c-.553.378-.993.888-1.259 1.49h5.582z"></path><path id="D" d="M58.626 15.344h-8.422c.028 1.637.881 2.455 2.56 2.455 1.168 0 2.091-.504 2.756-1.504l2.553.636c-.469 1.014-1.252 1.868-2.238 2.434a6.5 6.5 0 0 1-3.246.825c-1.539 0-2.756-.441-3.665-1.322s-1.357-2.049-1.357-3.504c-.021-.846.147-1.686.483-2.469a6.01 6.01 0 0 1 1.462-2.064c1.294-1.224 2.784-1.833 4.477-1.833 1.609 0 2.868.581 3.777 1.742.909 1.168 1.189 2.7.86 4.603zm-2.434-1.966c-.189-1.371-.993-2.056-2.406-2.056-.679-.01-1.346.188-1.91.567-.553.371-.993.888-1.259 1.49h5.575zm17.166.811c-.225 1.636-1.014 3.143-2.231 4.26-1.133 1.077-2.644 1.665-4.211 1.651-1.791 0-2.98-.588-3.7-1.798l-1.392 6.086h-3.064L62.494 8.3l3.05.007-.266 1.056c.958-.734 2.099-1.063 3.511-1.063.686-.014 1.42.126 2.043.42.615.294 1.126.685 1.546 1.224.923 1.126 1.252 2.539.979 4.246zm-4.134 2.413c.686-.636 1.133-1.49 1.259-2.413.168-1.021 0-1.833-.49-2.448-.497-.609-1.196-.916-2.106-.916-.881.021-1.721.35-2.371.944a3.87 3.87 0 0 0-1.357 2.42c-.168.986.021 1.784.567 2.406a2.64 2.64 0 0 0 .937.699c.357.161.749.238 1.14.231.902.014 1.77-.315 2.427-.923h-.007zm15.55 3.588h-2.945l.301-1.168c-.93.735-2.105 1.168-3.462 1.168-.609 0-1.336-.14-1.945-.476-.588-.322-1.126-.727-1.539-1.266-.895-1.126-1.21-2.539-.944-4.239a7.18 7.18 0 0 1 2.168-4.267A5.76 5.76 0 0 1 80.485 8.3c1.742 0 2.959.588 3.637 1.77l.364-1.714h2.952l-2.665 11.835zm-1.616-5.981c.161-.979-.028-1.784-.553-2.406-.252-.301-.56-.539-.909-.7s-.724-.238-1.105-.231c-.874-.021-1.714.308-2.357.916-.67.645-1.101 1.498-1.224 2.42-.161 1.014 0 1.826.483 2.434.476.616 1.161.916 2.043.916.853-.007 1.672-.343 2.308-.937.715-.619 1.183-1.476 1.315-2.413zm6.386 2.294c.035.237.126.463.266.657s.321.356.532.469c.455.254.969.384 1.49.378a2.11 2.11 0 0 0 1.245-.329c.14-.077.259-.189.343-.322a.91.91 0 0 0 .14-.448c0-.399-.287-.678-.853-.846l-2.099-.658c-1.63-.49-2.448-1.469-2.448-2.938-.014-.476.091-.951.294-1.385.21-.434.511-.812.888-1.112.797-.644 1.861-.972 3.211-.972 1.238 0 2.28.273 3.127.825.853.553 1.364 1.252 1.553 2.092l-2.413.72a1.46 1.46 0 0 0-.245-.601c-.119-.189-.287-.343-.476-.455a2.78 2.78 0 0 0-1.546-.399c-.574 0-.979.105-1.224.308a.96.96 0 0 0-.266.336c-.065.13-.096.274-.091.42 0 .434.399.783 1.203 1.035l1.301.399c1.896.588 2.84 1.623 2.84 3.085.013.497-.105.99-.343 1.427s-.578.812-1 1.077c-.888.616-2.001.923-3.337.923-1.103.019-2.195-.235-3.176-.741-.427-.217-.805-.518-1.105-.888-.294-.375-.504-.809-.616-1.273l2.805-.783zm11.185 0c.042.238.132.462.272.657a1.53 1.53 0 0 0 .532.462c.453.259.968.392 1.49.385.441.021.881-.098 1.252-.329.14-.077.259-.189.343-.322.084-.14.133-.287.14-.448 0-.399-.287-.678-.854-.846l-2.098-.658c-1.644-.497-2.469-1.476-2.469-2.938-.007-.476.091-.951.301-1.385.203-.434.511-.812.889-1.112.797-.644 1.86-.972 3.203-.972 1.245 0 2.295.273 3.141.825.853.553 1.371 1.252 1.553 2.092l-2.42.72a1.53 1.53 0 0 0-.245-.608c-.119-.182-.287-.336-.476-.448a2.8 2.8 0 0 0-1.553-.399c-.566 0-.979.105-1.217.308-.119.091-.21.203-.273.336a.87.87 0 0 0-.09.42c0 .434.398.776 1.203 1.035l1.308.392c1.895.595 2.847 1.623 2.847 3.092a2.79 2.79 0 0 1-.336 1.42c-.231.441-.574.811-.993 1.084-.882.616-2.001.923-3.344.923a6.67 6.67 0 0 1-3.176-.741c-.429-.212-.806-.515-1.105-.888s-.512-.803-.623-1.266l2.798-.79z"></path><path id="E" d="M29.513 8.258l-2.819 12.633h-2.973l2.84-12.64h-4.875l.616-2.749h12.675l-.609 2.749-4.854.007z"></path></defs></svg>