<svg xmlns="http://www.w3.org/2000/svg" xmlns:v="https://vecta.io/nano" width="73" height="70" fill="none"><path d="M68.714 1L61.56 8.153M34.342 35.372l14.7-14.7m0 0l10.73 10.73L72.29 18.883 61.56 8.153M49.042 20.672L61.56 8.153M34.342 35.372a19.67 19.67 0 0 1 5.855 13.937 19.67 19.67 0 0 1-1.485 7.564c-.989 2.399-2.442 4.578-4.277 6.412s-4.014 3.288-6.412 4.277a19.67 19.67 0 0 1-15.117-.051c-2.392-1.005-4.561-2.473-6.384-4.32a19.67 19.67 0 0 1 .24-27.576 19.67 19.67 0 0 1 27.576-.24l.004-.004z" stroke="#fc335f" stroke-width="1.145" stroke-linecap="round" stroke-linejoin="round"></path></svg>