<svg xmlns="http://www.w3.org/2000/svg" xmlns:v="https://vecta.io/nano" width="75" height="75" fill="none" stroke="#fc335f" stroke-linejoin="round"><path d="M29.572 27.445a10.73 10.73 0 0 1-5.961-1.806 10.71 10.71 0 0 1-3.951-4.815 10.73 10.73 0 0 1-.608-6.199 10.72 10.72 0 0 1 2.94-5.491c1.502-1.499 3.415-2.519 5.496-2.93a10.73 10.73 0 0 1 6.198.619 10.72 10.72 0 0 1 4.808 3.96c1.175 1.767 1.801 3.842 1.796 5.964a10.72 10.72 0 0 1-10.718 10.699h0zm4.815 15.708a3.9 3.9 0 0 0-3.754 2.84l-2.84 10.197-1.894 6.727-.72 2.533c-.115.407-.134.835-.055 1.25s.252.807.507 1.144a2.74 2.74 0 0 0 .963.799 2.75 2.75 0 0 0 1.218.287h28.977a3.9 3.9 0 0 0 3.754-2.84l1.131-3.991 1.761-6.202 2.575-9.265a2.73 2.73 0 0 0-1.409-3.193c-.378-.188-.795-.286-1.218-.286H34.387z"></path><path d="M29.175 68.925H10.84M46.018 36.81c-2.224-2.086-5.16-3.244-8.209-3.238H21.321a12.01 12.01 0 0 0-12.015 12.01v7.617c0 2.328.925 4.56 2.571 6.206s3.878 2.571 6.206 2.571h8.048" stroke-linecap="round"></path></svg>