<svg xmlns="http://www.w3.org/2000/svg" xmlns:xlink="http://www.w3.org/1999/xlink" xmlns:v="https://vecta.io/nano" width="75" height="75" fill="none"><style><![CDATA[.B{stroke-linecap:round}]]></style><g stroke="#fc335f" stroke-width="1.059" stroke-linejoin="round"><path d="M42.713 50.184c6.99-2.895 10.309-10.909 7.414-17.899s-10.909-10.309-17.899-7.414S21.919 35.78 24.815 42.77s10.909 10.309 17.899 7.414z"></path><path d="M37.473 23.832V12.05" class="B"></path><path d="M41.19 4.717a3.72 3.72 0 0 1-2.295 3.441 3.72 3.72 0 0 1-4.057-.806 3.72 3.72 0 0 1-.806-4.057A3.72 3.72 0 0 1 37.473 1a3.72 3.72 0 0 1 3.717 3.717z"></path><path d="M37.473 51.226v11.782" class="B"></path><path d="M33.752 70.337a3.72 3.72 0 0 1 2.297-3.438 3.72 3.72 0 0 1 4.055.806 3.72 3.72 0 0 1 .806 4.055 3.72 3.72 0 0 1-3.438 2.297 3.72 3.72 0 0 1-3.721-3.721z"></path><path d="M23.773 37.527H11.995m39.173.004H62.95" class="B"></path><path d="M70.283 41.248a3.72 3.72 0 0 1-3.441-2.294 3.72 3.72 0 0 1 .804-4.056 3.72 3.72 0 0 1 4.055-.809 3.72 3.72 0 0 1 2.298 3.438c.001.488-.095.972-.282 1.424s-.46.862-.805 1.207-.755.62-1.206.807a3.72 3.72 0 0 1-1.423.283h0z"></path><path d="M27.783 27.842l-8.325-8.329" class="B"></path><use xlink:href="#B"></use><path d="M47.149 47.208l8.338 8.337" class="B"></path><path d="M58.064 63.364c-.52-.52-.873-1.182-1.017-1.903s-.07-1.468.212-2.147.758-1.26 1.369-1.668 1.33-.626 2.065-.626 1.453.218 2.065.626 1.088.989 1.369 1.668.355 1.426.212 2.147-.497 1.383-1.017 1.903a3.72 3.72 0 0 1-5.257 0h0z"></path><path d="M27.787 47.216l-8.329 8.329" class="B"></path><use xlink:href="#B" y="46.405"></use><path d="M47.157 27.842l8.329-8.329" class="B"></path><path d="M63.3 16.959c-.52.519-1.182.872-1.903 1.015s-1.468.069-2.147-.213a3.72 3.72 0 0 1-1.667-1.369c-.408-.611-.626-1.329-.626-2.064s.218-1.453.626-2.064a3.71 3.71 0 0 1 1.667-1.369 3.72 3.72 0 0 1 4.05.802c.696.698 1.088 1.644 1.088 2.631s-.391 1.932-1.088 2.631h0zM4.717 41.139a3.72 3.72 0 0 0 3.717-3.717 3.72 3.72 0 0 0-3.717-3.717A3.72 3.72 0 0 0 1 37.422a3.72 3.72 0 0 0 3.717 3.717z"></path></g><defs><path id="B" d="M14.272 18.043a3.72 3.72 0 0 0 3.717-3.717 3.72 3.72 0 0 0-3.717-3.717 3.72 3.72 0 0 0-3.717 3.717 3.72 3.72 0 0 0 3.717 3.717z"></path></defs></svg>