<svg xmlns="http://www.w3.org/2000/svg" xmlns:v="https://vecta.io/nano" width="64" height="71" fill="none" stroke="#fc335f" stroke-width="1.169"><g stroke-linecap="round" stroke-linejoin="round"><path d="M21.087 70.25h35.302a6.17 6.17 0 0 0 6.168-6.168V34.387a6.17 6.17 0 0 0-6.168-6.168H18.49a6.17 6.17 0 0 0-6.168 6.168v2.009"></path><path d="M50.874 28.229V14.436c0-3.563-1.416-6.981-3.935-9.501S41.001 1 37.438 1c-1.764 0-3.511.348-5.142 1.023s-3.111 1.665-4.359 2.913-2.237 2.729-2.913 4.359-1.023 3.377-1.023 5.142v13.793"></path></g><path d="M12.326 70.25l1.133-.743 7.43-5.045c1.73-1.279 2.762-3.548 2.762-6.074V46.248c-7.362-1.539-11.326-4.791-11.326-4.791S8.362 44.703 1 46.248v12.141c0 2.526 1.032 4.795 2.762 6.074 1.808 1.334 7.203 4.892 7.43 5.045l1.133.743z" stroke-linejoin="round"></path></svg>