<svg width="612" height="889" viewBox="0 0 612 889" fill="none" xmlns="http://www.w3.org/2000/svg">
<rect x="27" y="81" width="495" height="510" fill="white"/>
<path d="M545.9 886.4C364 886.4 182 886.4 0 886.4C0 612.4 0 338.4 0.3 64.1C182.3 63.8 364 63.8 545.9 63.8C545.9 338.3 545.9 612.3 545.9 886.4ZM129.2 487C133.2 484.2 137.3 481.4 141.3 478.5C183.3 448.9 225.2 419.3 267.2 389.7C272.2 386.2 277.1 382.7 282.1 379.1C269.5 380.4 258 378.6 248.6 369.3C239.3 360.1 237.6 348.6 239.1 336.1C238.1 337 237.4 337.9 236.7 338.8C205.9 380.8 175 422.7 144.2 464.7C138.9 472 133.6 479.3 128 486.8C127.8 487.1 127.6 487.3 127.5 487.6C127.6 487.7 127.7 487.8 127.8 487.9C128.2 487.7 128.5 487.4 129.2 487ZM136.9 209.5C136.9 209.3 137 209 137 208.8C136.9 208.8 136.8 208.8 136.7 208.8C136.6 209.1 136.6 209.4 137 209.8C149.2 225.5 161.5 241.2 173.8 257.1C155 278.7 144.1 303.4 141.1 331.7C106.1 336.1 71.2 340.5 36.3 344.9C36.3 345 36.3 345.2 36.3 345.3C71.2 349.7 106.1 354.1 141.1 358.5C143.8 382.7 152.2 404.4 166.7 424.1C170.6 419 174.3 414.2 178.1 409.5C179.4 407.8 179.6 406.7 178.4 404.7C166.8 386.5 160.8 366.5 160.9 345C161.1 312.6 172.7 284.8 196.7 263.1C229.8 233.3 268.1 225.7 310.4 239.8C319 242.7 326.9 247.4 335.6 251.4C340.5 247.6 346.1 243.3 351.7 238.8C351 238.3 350.7 238 350.4 237.8C332 224.6 311.7 216.3 289.2 213.7C286.9 213.4 285.9 212.6 285.7 210.2C285.2 204.3 284.3 198.4 283.6 192.4C280.4 166.9 277.2 141.4 274 116C273.7 113.6 273.3 111.2 273 108.8C272.8 108.8 272.7 108.9 272.5 108.9C268.1 143.6 263.8 178.4 259.4 213.2C230.9 216.3 206.2 227.3 184.8 245.9C183.9 245.2 183 244.6 182.2 243.9C168.2 233 154.1 222.1 140 211.2C139.2 210.5 137.8 210.3 136.9 209.5ZM263.6 509C266.5 532.5 269.5 556.1 272.4 579.6C272.7 579.6 273 579.6 273.4 579.6C277.7 545.4 282 511.2 286.4 476.9C314.7 473.8 339.5 462.9 361 444.2C376.7 456.4 392.3 468.5 407.9 480.6C407.8 479.2 407.2 478.2 406.5 477.3C395.6 463.3 384.7 449.2 373.7 435.2C372.4 433.6 372.4 432.7 373.8 431.1C391.1 410.7 401.5 387.1 404.7 360.5C404.8 359.7 406 358.5 406.8 358.4C410.6 357.7 414.5 357.3 418.4 356.8C440.5 354 462.6 351.2 484.8 348.4C493.1 347.3 501.5 346.3 509.8 345.2C509.8 345.1 509.8 344.9 509.8 344.8C474.8 340.4 439.8 336 404.9 331.6C402.2 307.3 393.8 285.6 379.3 266C375.2 271.3 371.4 276.3 367.4 281.1C366.3 282.5 366.5 283.4 367.3 284.9C371.4 293.1 376.5 301.1 379.1 309.8C392.7 354.5 383.2 394.1 349.4 426.6C323 451.9 290.7 461 254.5 455.3C239.5 453 225.6 447.4 212.8 439.3C212 438.8 210.5 438.5 210 438.9C204.6 442.8 199.4 447 194.1 451.1C194.6 451.5 194.9 451.8 195.2 452.1C213.4 465.2 233.5 473.5 255.7 476.2C258.9 476.6 259.8 477.7 260.2 480.8C261 490.1 262.4 499.3 263.6 509ZM352 248.2C322.6 269.1 293.3 290 263.9 311C264 311.3 264 311.5 264.1 311.8C276.6 309.9 287.9 311.7 297.2 321C306.5 330.4 308.2 341.8 306.9 354.4C342 305.1 377.1 255.7 412.2 206.4C412 206.2 411.7 206 411.5 205.8C391.8 219.8 372.1 233.8 352 248.2ZM267.7 371.5C278.6 373.3 287.7 370.1 294.4 361.3C301 352.6 301.8 342.8 296.9 333.1C291.9 323.1 283.4 318.2 272.2 318.3C259.3 318.4 247.8 328.7 246.4 341.3C244.7 355.9 252.8 367.7 267.7 371.5Z" fill="#E5003A"/>
<path d="M609.3 145.2C607.4 149.1 606 153.1 603.6 156.3C600.3 160.7 595.2 162.7 590 163.8C581.2 165.5 572.6 165.2 564.5 160.8C557.3 156.8 553.8 150.5 553.1 142.3C551.7 125.2 566 116.4 579 116.5C586.2 116.6 593.2 117 599.5 121.1C604.7 124.5 607.7 129.4 609.2 135.6C609.3 138.7 609.3 141.8 609.3 145.2ZM564.8 143.3C566.1 145.3 566.9 147.8 568.7 149.1C575.7 154.3 583.5 153.9 591 150.8C598.8 147.6 600.4 137.1 594.2 131.9C587.8 126.5 573.8 126.7 567.8 132.5C565 135.2 563.3 138.7 564.8 143.3Z" fill="#E5003A"/>
<path d="M387.3 1C392.4 2.3 396.9 4 400.8 7.2C403.3 9.2 403.4 9.6 401.1 11.9C399.2 13.8 397.4 15.8 395.7 17.5C391.9 15.7 388.6 13.5 385 12.5C382.8 11.9 380 12.7 377.7 13.5C376.6 13.9 375.4 15.8 375.4 17C375.4 18.2 376.7 20 377.8 20.4C381.6 21.8 385.6 22.5 389.4 24C393.1 25.5 396.9 27.1 400.1 29.4C407 34.5 406.2 51.5 395 55.7C386.4 58.9 377.6 59.3 369.2 54.8C366.2 53.2 363.6 50.8 360.3 48.3C363.4 45.5 366 43.1 368.7 40.9C369.1 40.6 370.5 41.1 371 41.7C375.9 46.4 381.8 47.8 388.1 46C389.9 45.5 391.6 43.3 392.4 41.4C393.2 39.3 391.6 37.6 389.3 36.9C384.4 35.3 379.4 33.9 374.6 32.3C365.4 29.2 362.3 24 363.6 14C364.4 8 370.9 2.5 378.2 1.7C378.4 1.7 378.6 1.6 378.9 1.3C381.7 1 384.4 1 387.3 1Z" fill="#E5003A"/>
<path d="M609.3 416.3C605.2 426.8 605.2 426.8 600.2 431.4C597.7 428.7 595.1 426 592.6 423.3C595.8 419.1 598.7 415 598.2 409.6C597.8 405.9 596.3 403.9 593.8 403.6C591.3 403.4 590.2 404.8 589.6 406.8C588.5 410.7 587.6 414.6 586.4 418.5C584.6 424.4 582.3 429.9 575.5 431.6C566.1 433.9 556.7 430.7 554.1 419.8C552.1 411.1 552.4 402.6 557.5 394.9C558.9 392.8 560.9 391.2 563 389C565.6 391.9 568 394.6 570.6 397.5C566 401.8 563.8 407 564.3 413.1C564.4 414.7 564.7 416.5 565.6 417.7C566.5 418.9 568.3 420.2 569.6 420.1C571.1 420 573.3 418.8 573.8 417.6C575.7 412.8 576.9 407.8 578.5 402.9C579.7 399.2 581.3 395.7 585 393.7C595.1 388.1 606.4 393.6 608.8 405C608.9 405.3 608.9 405.6 609.2 406C609.3 409.4 609.3 412.7 609.3 416.3Z" fill="#E5003A"/>
<path d="M609.3 366.3C607.2 370.7 605.2 374.8 603.1 378.9C602.6 379.9 601.7 380.6 601.1 381.3C598.4 378.5 595.8 375.8 593.3 373.2C594.6 370.7 596.6 367.8 597.5 364.6C598.2 362.1 597.9 359.2 597.3 356.6C597 355.4 595.2 354 593.9 353.8C592.8 353.7 590.8 354.8 590.3 355.9C588.9 359.1 587.9 362.6 587 366C585.5 371.6 584 377 578.6 380.3C570.1 385.4 557.5 382 554.4 371.6C551.7 362.7 551.9 353.7 557.2 345.5C558.7 343.2 560.8 341.4 562.7 339.2C565.4 342.2 567.9 344.8 570.5 347.6C565.7 351.9 563.6 357.3 564.2 363.5C564.4 365.5 565.3 367.7 566.5 369.3C568.5 371.8 572.1 371.3 573.4 368.3C574.9 364.6 575.8 360.6 577.1 356.8C578.2 353.7 579.1 350.3 580.9 347.6C582.3 345.5 584.6 343.5 587 342.8C597.6 339.7 606.6 344 609 356.7C609.3 359.8 609.3 362.9 609.3 366.3Z" fill="#E5003A"/>
<path d="M609.3 95.8C607.6 101.8 604.7 106.6 599.5 109.8C598.8 110.2 598.1 110.5 597 111.1C595.5 108 593.9 105 592.7 101.9C592.4 101.3 592.9 99.8 593.4 99.4C599.9 95.3 599.1 86 593.6 82C586.3 76.6 574 76.8 567.6 83.1C562.5 88.1 563.2 95.8 569 99.7C570.8 100.9 571 101.9 569.9 103.6C568.4 106 567 108.4 565.6 110.8C558 108.3 552.8 99.1 552.9 92C553 84.9 554.5 78.7 559.7 73.7C563.3 70.2 567.8 68.4 572.7 67.4C582.4 65.4 591.5 66.2 599.8 71.9C604.7 75.3 607.6 80.1 609 86C609.3 89.3 609.3 92.4 609.3 95.8Z" fill="#E5003A"/>
<path d="M571.5 209.3C565.1 206.3 558.8 203.4 552.1 200.3C562.4 195.6 572 191.2 581.6 186.8C581.6 186.6 581.5 186.4 581.5 186.2C572.4 186.2 563.3 186.2 554 186.2C554 182.5 554 179.1 554 175.3C572 175.3 590.2 175.3 608.5 175.3C608.5 178.7 608.5 182.2 608.5 185.8C598.2 190.5 587.7 195.3 577.2 200.1C577 200.2 577 200.4 576.8 200.6C584 203.8 591.2 207 598.4 210.2C599.2 210.6 600.1 210.9 600.9 211.3C603.4 212.5 607.3 213.2 608.2 215.2C609.5 218 608.5 221.8 608.5 225.4C590.3 225.4 572.2 225.4 553.8 225.4C553.8 221.9 553.8 218.4 553.8 214.6C563.4 214.6 573 214.6 582.5 214.6C582.5 214.4 582.5 214.3 582.6 214.1C579 212.7 575.4 211 571.5 209.3Z" fill="#E5003A"/>
<path d="M319.7 44.2C319.7 48.6 319.7 52.7 319.7 57C315.7 57 312.1 57 308.2 57C308.2 38.6 308.2 20.3 308.2 1.59999C315.7 1.59999 323.1 1.49999 330.4 1.59999C335.7 1.69999 340.8 2.19999 345.7 4.89999C355.6 10.5 355.9 29.2 344.5 34.9C344.1 35.1 343.7 35.4 343.1 35.8C346.4 42.8 349.7 49.7 353.2 57.1C348.9 57.1 345.1 57.2 341.2 57C340.4 57 339.4 55.8 339 54.9C336.4 49.8 333.9 44.7 331.4 39.6C330.7 38.1 329.8 37.2 327.9 37.3C325.4 37.5 322.8 37.3 319.7 37.3C319.7 39.7 319.7 41.8 319.7 44.2ZM324.4 13.4C322.9 13.4 321.4 13.4 319.9 13.4C319.9 18 319.9 22 319.9 26.4C325 26.4 329.9 26.4 334.8 26.4C338.3 26.4 341.2 23.4 341.3 20C341.3 16.1 338.9 13.6 334.9 13.5C331.6 13.3 328.3 13.4 324.4 13.4Z" fill="#E5003A"/>
<path d="M245.4 16.7C248.8 28.6 248.9 39.9 239.9 49.4C235.6 54 229.9 56.2 223.6 56.6C216.9 57 210.2 57.2 203.2 57.5C203.2 38.7 203.2 20.4 203.2 2.09999C209.9 2.09999 216.5 1.99999 223.1 2.09999C227.5 2.19999 231.7 3.09999 235.7 5.19999C240.4 7.79999 243.5 11.5 245.4 16.7ZM215.2 45.4C218.4 45.3 221.6 45.6 224.6 45C231.7 43.6 234.7 38.3 235.5 31.7C236.2 25.9 235.1 18.3 228.8 14.9C224.1 12.4 219.1 13.6 214 13.4C214 24 214 34.1 214 44.3C214.1 44.6 214.5 45 215.2 45.4Z" fill="#E5003A"/>
<path d="M459 57.1C455.3 57.2 451.9 57.2 448.3 57.2C448.3 49.7 448.3 42.3 448.3 34.7C441 34.7 434 34.7 426.6 34.7C426.6 42 426.6 49.4 426.6 57C422.8 57 419.3 57 415.6 57C415.6 38.7 415.6 20.4 415.6 1.89999C419.1 1.89999 422.7 1.89999 426.5 1.89999C426.5 8.69999 426.5 15.5 426.5 22.4C433.7 22.4 440.7 22.4 448 22.4C448 15.6 448 8.79999 448 1.79999C452.1 1.79999 455.7 1.79999 459.6 1.79999C459.7 2.59999 459.8 3.39999 459.8 4.09999C459.8 20.9 459.8 37.6 459.8 54.4C459.9 55.3 459.5 56.2 459 57.1Z" fill="#E5003A"/>
<path d="M105.5 22C109.8 22 116.3 22 120.5 22C120.5 25.7 120.5 29.2 120.5 33C115.6 33 110.7 33 105.6 33C105.6 37.2 105.6 41.2 105.6 45.4C114.7 45.4 123.7 45.4 132.9 45.4C132.9 49.3 132.9 53 132.9 56.9C120 56.9 107 56.9 93.8 56.9C93.8 38.6 93.8 20.4 93.8 1.79999C106.4 1.79999 118.9 1.79999 131.7 1.79999C131.7 5.49999 131.7 9.19999 131.7 13.1C123.1 13.1 114.5 13.1 105.4 13.1" fill="#E5003A"/>
<path d="M257.9 22.6C257.9 15.5 257.9 8.79999 257.9 1.79999C270.7 1.79999 283.2 1.79999 295.9 1.79999C295.9 5.49999 295.9 9.29999 295.9 13.3C287 13.3 278.2 13.3 269.2 13.3C269.2 16.2 269.2 18.8 269.2 21.9C274.3 21.9 279.5 21.9 284.8 21.9C284.8 25.8 284.8 29.2 284.8 33.1C279.7 33.1 274.5 33.1 269.1 33.1C269.1 37.4 269.1 41.2 269.1 45.4C278.4 45.4 287.6 45.4 297.1 45.4C297.1 49.4 297.1 53.1 297.1 57.1C284.2 57.1 271.3 57.1 257.8 57.1C257.9 45.7 257.9 34.3 257.9 22.6Z" fill="#E5003A"/>
<path d="M172.4 1.6C179.3 19.9 186.3 38.2 193.5 57.1C189.1 57.1 185.3 57.2 181.5 57C181 57 180.4 56 180.1 55.3C179 52.5 178.1 49.5 176.9 46.8C176.5 45.9 175.3 44.9 174.4 44.9C168.6 44.7 162.9 44.8 157.1 44.8C155.6 49 154.1 53 152.7 57C148.6 57 144.7 57 140.3 57C142 52.4 143.5 48 145.2 43.7C150.2 30.7 155.5 14.6 160.2 1.5M166.9 17.9C166.2 19.5 165.5 21.1 164.9 22.8C163.6 26.3 162.4 29.9 161.2 33.5C165.1 33.5 168.5 33.5 172.1 33.5C170.4 28.3 168.7 23.3 166.9 17.9Z" fill="#E5003A"/>
<path d="M603.7 239.4C605.4 239.4 606.8 239.4 608.7 239.4C608.7 246.9 608.9 254.2 608.6 261.5C608.5 265.1 607.8 268.8 606.8 272.2C605.1 278 599.3 282.1 593.2 282C590.5 282 587.8 282.2 585.3 281.6C578.4 279.9 574.7 275 573.6 268.3C573 264.4 573.1 260.4 572.9 256.4C572.8 254.8 572.9 253.2 572.9 251.2C566.5 251.2 560.3 251.2 554 251.2C554 247.3 554 243.6 554 239.4C570.4 239.4 586.9 239.4 603.7 239.4ZM597.6 258.2C597.6 255.9 597.6 253.6 597.6 251.3C592.8 251.3 588.5 251.3 584 251.3C584 255.7 583.8 259.9 584.1 264.1C584.3 267.9 586.3 270.1 589.3 270.2C593.3 270.5 595.9 270.5 597.2 264.8C597.6 262.9 597.5 260.8 597.6 258.2Z" fill="#E5003A"/>
<path d="M506.2 57.2C504.1 57.2 502.3 57.2 500.2 57.2C500.2 38.6 500.2 20.2 500.2 1.7C500.9 1.6 501.7 1.6 502.5 1.6C509.5 1.6 516.5 1.3 523.5 1.7C527.1 1.9 530.7 2.8 534 4.2C540.8 7 543 13.1 542.8 19.7C542.7 23.8 542.2 27.7 539.5 31.1C536.1 35.3 531.7 37.1 526.6 37.4C521.8 37.7 516.9 37.5 512.1 37.5C511.9 37.5 511.7 37.6 511.3 37.8C511.3 44 511.3 50.3 511.3 57.2C509.5 57.2 508 57.2 506.2 57.2ZM511.2 26.3C516.1 26.3 520.5 26.4 525 26.3C529.2 26.2 531.1 23.8 531 19.2C530.9 15.5 528.6 13.4 524.6 13.4C521.1 13.4 515.5 13.4 511.4 13.4" fill="#E5003A"/>
<path d="M564.9 318.4C565.5 317.4 566.1 316.5 566.1 315.6C566.2 310.8 566.1 305.9 566.2 301.1C566.2 299.4 565.8 298.3 564 298.1C563.7 298.1 563.4 297.9 563.1 297.8C552.6 294.2 552.6 294.2 554.1 282.6C555 282.8 555.8 282.9 556.6 283.2C573 289.4 589.4 295.6 605.8 301.8C607.9 302.6 609.3 303.6 608.9 306.2C608.6 308 609.1 309.9 608.8 311.7C608.6 312.9 607.8 314.6 606.8 314.9C589.6 321.5 572.3 327.9 555 334.3C554.8 334.4 554.6 334.3 553.9 334.2C553.9 330.5 553.8 326.8 554 323.1C554 322.5 555.1 321.8 555.9 321.5C558.7 320.4 561.7 319.5 564.9 318.4ZM590.4 307.4C585.9 305.9 581.4 304.4 576.7 302.9C576.7 306.8 576.7 310.2 576.7 314C582.1 312.1 587.2 310.4 592.8 308.4C591.8 308 591.3 307.8 590.4 307.4Z" fill="#E5003A"/>
<path d="M45.8 57.2C45.8 38.7 45.8 20.4 45.8 1.79999C49.3 1.79999 52.9 1.79999 56.8 1.79999C56.8 16.2 56.8 30.6 56.8 45.3C65.7 45.3 74.2 45.3 83.1 45.3C83.1 49.1 83.1 53.5 83.1 57" fill="#E5003A"/>
<path d="M485.8 23.8C485.8 35 485.8 45.9 485.8 56.9C481.9 56.9 478.2 56.9 474.3 56.9C474.3 38.6 474.3 20.3 474.3 1.70001C478 1.70001 481.6 1.70001 485.8 1.70001C485.8 9.00001 485.8 16.3 485.8 23.8Z" fill="#E5003A"/>
<path fill-rule="evenodd" clip-rule="evenodd" d="M450.8 675.7C453 675.7 454.4 676.2 455.8 677L456.1 677.2L454.8 678.4C453.5 677.6 452.4 677.1 450.6 677.1C448.2 677.1 447.2 678.1 447.2 679.2C447.2 680.1 447.6 680.8 449.7 681.5L450.3 681.7L451 681.9L451.8 682.1L452.6 682.3C455.6 683.3 456.5 684.3 456.5 686.2C456.5 688.4 454.4 690.1 450.7 690.1C448.5 690.1 446.5 689.4 445.1 688.4L444.8 688.2L446.1 687C447.4 688 449 688.7 450.8 688.7C453.1 688.7 454.6 687.8 454.6 686.3C454.6 685.1 453.7 684.3 450.8 683.5L450.4 683.4C446.6 682.3 445.3 681.3 445.3 679.3C445.3 677.1 447.5 675.7 450.8 675.7ZM495.2 675.7C497.4 675.7 498.8 676.2 500.2 677L500.5 677.2L499.2 678.4C497.9 677.6 496.8 677.1 495 677.1C492.6 677.1 491.6 678.1 491.6 679.2C491.6 680.1 492 680.7 493.8 681.4L494.4 681.6C494.5 681.6 494.6 681.7 494.7 681.7L495.4 681.9L496.2 682.1L496.9 682.3C499.9 683.3 500.8 684.3 500.8 686.2C500.8 688.4 498.6 690.1 495 690.1C492.8 690.1 490.8 689.4 489.4 688.4L489.1 688.2L490.4 687C491.7 688 493.3 688.7 495.1 688.7C497.4 688.7 498.9 687.8 498.9 686.3C498.9 685.2 498.2 684.5 495.8 683.7L495.1 683.5L494.7 683.4C490.9 682.3 489.6 681.3 489.6 679.3C489.8 677.1 492 675.7 495.2 675.7ZM479.2 675.9V677.3H474V690H472.1V677.4H467V676H479.2V675.9ZM335.4 675.9L341.5 689.9H339.5L338 686.3H330.8L329.3 689.9H327.3L333.4 675.9H335.4ZM423.6 675.9L426.4 679.9L427 680.8L427.6 681.7C427.9 682.1 428.2 682.6 428.4 682.9C428.5 682.7 428.7 682.4 428.9 682.1L429.5 681.2L430.1 680.3L430.4 679.9L433.2 675.9H435.4L429.4 684.3V689.9H427.4V684.4L421.4 675.9H423.6ZM353.1 675.9H355L362.7 685.9L363.2 686.6L363.5 687.1L363.7 687.5V676H365.6V690H363.8L356.1 680.4L355.8 680L355.4 679.5L354.9 678.8L354.8 678.6V690H352.9V675.9H353.1ZM405.1 675.9V688.5H413.8V689.9H403.2V675.9H405.1ZM385.5 675.9L391.6 689.9H389.5L388 686.3H380.8L379.3 689.9H377.3L383.4 675.9H385.5ZM384.4 677.6L384.3 677.8L384.2 678.1L384 678.7L383.7 679.4L383.4 680.1L381.3 685H387.3L385.4 680.4L385.1 679.7L384.8 679L384.5 678.3C384.5 678.2 384.4 678.1 384.4 678V677.6ZM334.3 677.6L334.2 677.8L334.1 678.1L333.9 678.7L333.6 679.4L333.3 680.1L333.2 680.4L331.3 685H337.3L335.1 679.7L334.8 679L334.6 678.3L334.4 677.7L334.3 677.6ZM301.4 633.9C306.3 633.9 310.4 636.3 312.9 639.9L313.2 640.3H313.3V634.6H324.1V662.4C324.1 674 318.5 678.6 307.2 679.4L306.1 679.5H305C304.4 679.5 303.8 679.5 303.2 679.5C298.9 679.5 295.2 678.9 292.4 678.2L291.5 678L290.7 677.8C290.6 677.8 290.4 677.7 290.3 677.7L289.9 677.6L290.5 669C294.2 670.6 297.2 671.6 302.2 671.6C309 671.6 312.7 668.8 312.8 662.9V662.5V660.8H312.7C309.8 664.5 305.8 666.2 301.1 666.2C291.6 666.2 285.7 659.7 285.7 650.3C285.8 641 290.6 633.9 301.4 633.9ZM173.3 633.9C182.9 633.9 188.1 642.2 188.1 649.8C188.1 659.1 182.6 666.9 172.3 666.9C168.3 666.9 163.9 665.6 161.6 662.1L161.4 661.7H161.3V678.8H149.3V634.6H160.3V640.3H160.4C162.8 635.9 167.9 633.9 173.3 633.9ZM214.2 633.9C223.8 633.9 229 642.2 229 649.8C229 659.1 223.5 666.9 213.2 666.9C209.2 666.9 204.8 665.6 202.5 662.1L202.3 661.7H202.2V678.8H190.2V634.6H201.2V640.3H201.3C203.7 635.9 208.8 633.9 214.2 633.9ZM344.3 633.9C356.9 633.9 361.7 641.9 361.8 651.1V651.5V653.5H337.8C338.5 657.9 342.1 659.5 348 659.5C351.1 659.5 354.5 658.9 357.9 657.4L358.6 657.1V664.8C354.7 666.2 350.3 666.8 345.9 666.8C334.5 666.8 325.7 660.7 325.7 650.3C325.7 640 333.5 633.9 344.3 633.9ZM486.9 633.9C499.5 633.9 504.3 641.9 504.4 651.1V651.5V653.5H480.4C481.1 657.9 484.7 659.5 490.6 659.5C493.7 659.5 497.1 658.9 500.5 657.4L501.2 657.1V664.8C497.3 666.2 492.9 666.8 488.5 666.8C477.1 666.8 468.3 660.7 468.3 650.3C468.3 640 476.1 633.9 486.9 633.9ZM121.1 634.7V649.9C121.1 655.8 123.4 657.8 126.6 657.8C131.4 657.8 133.9 654.9 134 648.4V647.9V634.6H146V666.1H135.1V660.3H135C132.6 664.8 127.8 666.8 122.4 666.8C113.1 666.8 109.3 661 109.2 654.6V654.2V634.5H121.1V634.7ZM435.5 633.9C444.6 633.9 452 641.3 452 650.4C452 659.5 444.6 666.9 435.5 666.9C426.4 666.9 419 659.5 419 650.4C419.1 641.3 426.4 633.9 435.5 633.9ZM408.7 633.9C412 633.9 415 634.4 417.6 635.4L418.2 635.6L417.3 643.6C415.1 642.4 412.9 641.8 410 641.8C404.8 641.8 400.8 645.1 400.8 650.5C400.8 655.5 405.5 658.8 410.6 658.8C413.1 658.8 415.6 658.3 417.6 657.5L418.1 657.3L418.4 665.4C415.4 666.3 411.8 666.8 408.6 666.8C397.2 666.8 388.4 660.8 388.4 650.3C388.5 640 397.2 633.9 408.7 633.9ZM270.8 633.9C280.1 633.9 283.9 639.7 284 646.1V646.5V666.2H272V651C272 645.1 269.7 643.1 266.5 643.1C261.7 643.1 259.2 646 259.1 652.5V653V666.3H247.1V634.8H258V640.6H258.1C260.5 635.9 265.3 633.9 270.8 633.9ZM384.8 633.9C386 633.9 387.2 634 388.3 634.2L388.8 634.3L388.2 643.4C386.9 643 385.5 643 384.1 643C378.6 643 375.5 646.5 375.4 652.4V652.8V666.1H363.4V634.6H374.3V640.4H374.4C376.6 636.5 379.6 633.9 384.8 633.9ZM84.1 634.6V647.9H84.2L94.2 634.7H107.3L95.3001 649.2L108.3 666.3H93.8001L84.2 650.7H84.1V666.3H72.1V654H68V649.8H72.1V644.7H75.8001V640.5H72.1V634.8H84.1V634.6ZM466.1 634.6V666.1H454.1V634.6H466.1ZM243.2 642.8V666.2H231.2V642.8H243.2ZM77.7 658.8H73.5V663H77.7V658.8ZM168.5 642.3C164.1 642.3 161.2 645.8 161.2 650.5C161.2 655.1 164.5 658.5 168.5 658.5C173 658.5 175.8 655.1 175.8 650C175.8 645.9 173.2 642.3 168.5 642.3ZM209.4 642.3C205 642.3 202.1 645.8 202.1 650.5C202.1 655.1 205.4 658.5 209.4 658.5C213.9 658.5 216.7 655.1 216.7 650C216.7 645.9 214.1 642.3 209.4 642.3ZM304.9 642.3C300.4 642.3 298.1 645.9 298.1 650.2C298.1 655.1 301.3 657.9 304.9 657.9C309.2 657.9 312.6 654.6 312.6 649.8C312.6 646.2 310.3 642.3 304.9 642.3ZM435.5 643.3C431.6 643.3 428.5 646.5 428.5 650.3C428.5 654.2 431.7 657.3 435.5 657.3C439.4 657.3 442.5 654.1 442.5 650.3C442.6 646.5 439.4 643.3 435.5 643.3ZM65.3001 652V656.2H61.1V652H65.3001ZM58.6 656V660.2H54.4001V656H58.6ZM47.5 659.6V663.8H43.3V659.6H47.5ZM68.4001 661V665.2H64.2V661H68.4001ZM79.3001 647.2H75.1V651.4H79.3001V647.2ZM59.3 643.9V646.4H61.7001V650.6H57.5V648.1H55V643.9H59.3ZM51 645.7V649.9H46.8V645.7H51ZM344.3 640.8C340.1 640.8 338 643.6 337.7 647.1V647.4H351C351 643.8 349.1 640.8 344.3 640.8ZM486.9 640.8C482.7 640.8 480.6 643.6 480.3 647.1V647.4H493.6C493.6 643.8 491.7 640.8 486.9 640.8ZM65 636V640.2H69.2V644.4H65V640.2H60.8V636H65ZM53 637.3V641.5H48.8V637.3H53ZM243.2 634.6V639.8H231.2V634.6H243.2Z" fill="white"/>
</svg>
